<?xml version="1.0" encoding="UTF-8"?>
<svg width="392px" height="81px" viewBox="0 0 392 81" version="1.1" xmlns="http://www.w3.org/2000/svg" xmlns:xlink="http://www.w3.org/1999/xlink">
    <!-- Generator: Sketch 51.3 (57544) - http://www.bohemiancoding.com/sketch -->
    <title>logo-portal-emprendedor</title>
    <desc>Created with Sketch.</desc>
    <defs></defs>
    <g id="Page-1" stroke="none" stroke-width="1" fill="none" fill-rule="evenodd">
        <g id="logo-portal-emprendedor" fill-rule="nonzero">
            <polygon id="Shape" fill="#335EEB" points="26.5 74.4 26.5 80.7 0.8 80.7 0.8 43.6 26.1 43.6 26.1 49.9 8 49.9 8 58.8 23.6 58.8 23.6 64.7 8 64.7 8 74.4"></polygon>
            <polygon id="Shape" fill="#335EEB" points="62.5 80.7 62.5 56.1 52.9 74.4 49 74.4 39.4 56.1 39.4 80.7 32.2 80.7 32.2 43.6 39.9 43.6 50.9 64.7 62 43.6 69.7 43.6 69.7 80.7 62.5 80.7"></polygon>
            <path d="M77.4,80.7 L77.4,43.6 L93.1,43.6 C94.8,43.6 96.4,44 97.8,44.7 C99.2,45.4 100.5,46.4 101.5,47.5 C102.5,48.7 103.4,50 104,51.5 C104.6,53 104.9,54.5 104.9,56 C104.9,57.6 104.6,59.1 104.1,60.6 C103.5,62.1 102.8,63.4 101.7,64.5 C100.7,65.6 99.5,66.6 98,67.3 C96.6,68 95,68.3 93.3,68.3 L84.5,68.3 L84.5,80.7 L77.4,80.7 Z M84.6,61.9 L93,61.9 C94.3,61.9 95.4,61.4 96.3,60.3 C97.2,59.2 97.6,57.8 97.6,55.9 C97.6,55 97.5,54.1 97.2,53.4 C96.9,52.6 96.6,52 96.1,51.5 C95.6,51 95.1,50.6 94.5,50.3 C93.9,50 93.3,49.9 92.6,49.9 L84.5,49.9 L84.5,61.9 L84.6,61.9 Z" id="Shape" fill="#335EEB"></path>
            <path d="M110,80.7 L110,43.6 L126.4,43.6 C128.1,43.6 129.7,44 131.1,44.7 C132.5,45.4 133.8,46.4 134.8,47.5 C135.8,48.7 136.7,50 137.3,51.5 C137.9,53 138.2,54.5 138.2,56 C138.2,58.4 137.6,60.6 136.4,62.6 C135.2,64.6 133.6,66 131.5,66.9 L140,80.9 L131.9,80.9 L124.3,68.5 L117.2,68.5 L117.2,80.9 L110,80.9 L110,80.7 Z M117.2,61.9 L126.2,61.9 C126.9,61.9 127.5,61.7 128.1,61.4 C128.7,61.1 129.2,60.7 129.6,60.1 C130,59.6 130.3,58.9 130.6,58.2 C130.8,57.5 131,56.7 131,55.8 C131,54.9 130.9,54.1 130.6,53.4 C130.3,52.7 129.9,52 129.5,51.5 C129,51 128.5,50.5 127.9,50.2 C127.3,49.9 126.7,49.8 126,49.8 L117.3,49.8 L117.3,61.9 L117.2,61.9 Z" id="Shape" fill="#335EEB"></path>
            <polygon id="Shape" fill="#335EEB" points="170.6 74.4 170.6 80.7 144.8 80.7 144.8 43.6 170.1 43.6 170.1 49.9 152 49.9 152 58.8 167.6 58.8 167.6 64.7 152 64.7 152 74.4"></polygon>
            <polygon id="Shape" fill="#335EEB" points="183.4 56.9 183.4 80.7 176.2 80.7 176.2 43.6 181.8 43.6 201.2 68 201.2 43.6 208.4 43.6 208.4 80.7 202.5 80.7"></polygon>
            <path d="M216.1,80.7 L216.1,43.6 L229.6,43.6 C232.6,43.6 235.3,44.1 237.6,45.1 C239.9,46.1 241.8,47.4 243.3,49.1 C244.8,50.8 246,52.7 246.8,55 C247.6,57.2 247.9,59.6 247.9,62.2 C247.9,65 247.5,67.6 246.6,69.9 C245.7,72.2 244.5,74.1 242.9,75.8 C241.3,77.4 239.4,78.7 237.1,79.6 C234.9,80.5 232.3,80.9 229.5,80.9 L216.1,80.9 L216.1,80.7 Z M240.7,62.1 C240.7,60.3 240.5,58.7 240,57.2 C239.5,55.7 238.8,54.4 237.9,53.3 C237,52.2 235.8,51.4 234.4,50.8 C233,50.2 231.5,49.9 229.7,49.9 L223.4,49.9 L223.4,74.4 L229.7,74.4 C231.5,74.4 233.1,74.1 234.4,73.5 C235.8,72.9 236.9,72 237.8,70.9 C238.7,69.8 239.4,68.5 239.9,67 C240.4,65.4 240.7,63.8 240.7,62.1 Z" id="Shape" fill="#335EEB"></path>
            <polygon id="Shape" fill="#335EEB" points="279.4 74.4 279.4 80.7 253.6 80.7 253.6 43.6 278.9 43.6 278.9 49.9 260.8 49.9 260.8 58.8 276.4 58.8 276.4 64.7 260.8 64.7 260.8 74.4"></polygon>
            <path d="M285,80.7 L285,43.6 L298.5,43.6 C301.5,43.6 304.2,44.1 306.5,45.1 C308.8,46.1 310.7,47.4 312.2,49.1 C313.7,50.8 314.9,52.7 315.7,55 C316.5,57.2 316.8,59.6 316.8,62.2 C316.8,65 316.4,67.6 315.5,69.9 C314.6,72.2 313.4,74.1 311.8,75.8 C310.2,77.4 308.3,78.7 306,79.6 C303.8,80.5 301.2,80.9 298.4,80.9 L285,80.9 L285,80.7 Z M309.5,62.1 C309.5,60.3 309.3,58.7 308.8,57.2 C308.3,55.7 307.6,54.4 306.7,53.3 C305.8,52.2 304.6,51.4 303.2,50.8 C301.8,50.2 300.3,49.9 298.5,49.9 L292.2,49.9 L292.2,74.4 L298.5,74.4 C300.3,74.4 301.9,74.1 303.2,73.5 C304.6,72.9 305.7,72 306.6,70.9 C307.5,69.8 308.2,68.5 308.7,67 C309.3,65.4 309.5,63.8 309.5,62.1 Z" id="Shape" fill="#335EEB"></path>
            <path d="M338.3,81 C335.6,81 333.1,80.5 330.9,79.4 C328.7,78.3 326.8,76.9 325.2,75.2 C323.6,73.4 322.4,71.4 321.5,69.2 C320.6,67 320.2,64.6 320.2,62.2 C320.2,59.7 320.7,57.4 321.6,55.1 C322.5,52.8 323.8,50.8 325.4,49.1 C327,47.4 328.9,46 331.2,44.9 C333.4,43.9 335.9,43.4 338.5,43.4 C341.2,43.4 343.6,43.9 345.8,45 C348,46.1 349.9,47.5 351.5,49.3 C353.1,51.1 354.3,53.1 355.2,55.4 C356.1,57.7 356.5,60 356.5,62.3 C356.5,64.8 356,67.1 355.1,69.4 C354.2,71.6 352.9,73.6 351.3,75.4 C349.7,77.1 347.8,78.5 345.5,79.5 C343.3,80.4 340.9,81 338.3,81 Z M327.5,62.1 C327.5,63.7 327.7,65.3 328.2,66.8 C328.7,68.3 329.4,69.6 330.3,70.8 C331.2,72 332.4,72.9 333.7,73.6 C335,74.3 336.6,74.6 338.3,74.6 C340,74.6 341.6,74.2 342.9,73.5 C344.2,72.8 345.4,71.8 346.3,70.7 C347.2,69.5 347.9,68.2 348.4,66.7 C348.9,65.2 349.1,63.7 349.1,62.2 C349.1,60.6 348.8,59 348.3,57.5 C347.8,56 347.1,54.7 346.2,53.5 C345.3,52.3 344.1,51.4 342.8,50.8 C341.5,50.1 340,49.8 338.3,49.8 C336.6,49.8 335,50.2 333.6,50.9 C332.2,51.6 331.1,52.6 330.2,53.7 C329.3,54.9 328.6,56.2 328.1,57.7 C327.8,59.1 327.5,60.6 327.5,62.1 Z" id="Shape" fill="#335EEB"></path>
            <path d="M362,80.7 L362,43.6 L378.4,43.6 C380.1,43.6 381.7,44 383.1,44.7 C384.5,45.4 385.8,46.4 386.8,47.5 C387.8,48.7 388.7,50 389.3,51.5 C389.9,53 390.2,54.5 390.2,56 C390.2,58.4 389.6,60.6 388.4,62.6 C387.2,64.6 385.6,66 383.5,66.9 L392,80.9 L383.9,80.9 L376.3,68.5 L369.2,68.5 L369.2,80.9 L362,80.9 L362,80.7 Z M369.2,61.9 L378.2,61.9 C378.9,61.9 379.5,61.7 380.1,61.4 C380.7,61.1 381.2,60.7 381.6,60.1 C382,59.6 382.4,58.9 382.6,58.2 C382.8,57.5 383,56.7 383,55.8 C383,54.9 382.9,54.1 382.6,53.4 C382.3,52.7 381.9,52 381.5,51.5 C381,51 380.5,50.5 379.9,50.2 C379.3,49.9 378.7,49.8 378,49.8 L369.3,49.8 L369.3,61.9 L369.2,61.9 Z" id="Shape" fill="#335EEB"></path>
            <rect id="Rectangle-path" fill="#335EEB" x="177.6" y="23.6" width="20.6" height="2.2"></rect>
            <path d="M3.8,25.8 L3.8,1.1 L14,1.1 C15.1,1.1 16,1.3 16.9,1.8 C17.8,2.3 18.6,2.8 19.2,3.6 C19.8,4.3 20.4,5.2 20.7,6.1 C21.1,7 21.3,8 21.3,8.9 C21.3,9.9 21.1,10.9 20.8,11.8 C20.5,12.7 20,13.6 19.3,14.3 C18.8,15 18,15.6 17.1,16 C16.2,16.4 15.3,16.7 14.2,16.7 L6.2,16.7 L6.2,25.8 L3.8,25.8 Z M6.3,14.5 L14.2,14.5 C14.9,14.5 15.6,14.3 16.2,14 C16.8,13.7 17.3,13.3 17.7,12.8 C18.1,12.3 18.4,11.7 18.7,11 C18.9,10.3 19,9.6 19,8.9 C19,8.1 18.9,7.4 18.6,6.7 C18.3,6 18,5.4 17.5,4.9 C17,4.4 16.5,4 15.9,3.7 C15.3,3.4 14.6,3.3 14,3.3 L6.3,3.3 L6.3,14.5 Z" id="Shape" fill="#132235"></path>
            <path d="M42.3,25.9 C40.6,25.9 39,25.5 37.6,24.8 C36.2,24.1 35,23.2 33.9,22 C32.9,20.8 32.1,19.5 31.5,18 C30.9,16.5 30.7,15 30.7,13.4 C30.7,11.8 31,10.2 31.6,8.7 C32.2,7.2 33,5.9 34,4.7 C35,3.5 36.3,2.6 37.7,1.9 C39.1,1.2 40.6,0.9 42.3,0.9 C44,0.9 45.6,1.3 47,2 C48.4,2.7 49.6,3.7 50.6,4.9 C51.6,6.1 52.4,7.4 52.9,8.9 C53.5,10.4 53.7,11.9 53.7,13.5 C53.7,15.1 53.4,16.7 52.8,18.2 C52.2,19.7 51.4,21 50.4,22.2 C49.4,23.3 48.2,24.3 46.7,24.9 C45.4,25.6 43.9,25.9 42.3,25.9 Z M33.2,13.5 C33.2,14.8 33.4,16.1 33.9,17.4 C34.3,18.6 35,19.7 35.8,20.7 C36.6,21.7 37.6,22.4 38.7,23 C39.8,23.6 41,23.9 42.4,23.9 C43.8,23.9 45,23.6 46.2,23 C47.3,22.4 48.3,21.6 49.1,20.6 C49.9,19.6 50.5,18.5 50.9,17.3 C51.3,16.1 51.5,14.8 51.5,13.6 C51.5,12.3 51.3,11 50.8,9.7 C50.3,8.5 49.7,7.4 48.9,6.4 C48,5.4 47.1,4.6 46,4 C44.9,3.4 43.7,3.2 42.3,3.2 C40.9,3.2 39.7,3.5 38.5,4.1 C37.4,4.7 36.4,5.5 35.6,6.4 C34.8,7.4 34.2,8.5 33.8,9.7 C33.4,10.9 33.2,12.2 33.2,13.5 Z" id="Shape" fill="#132235"></path>
            <path d="M65.3,25.8 L65.3,1.1 L75.7,1.1 C76.8,1.1 77.7,1.3 78.6,1.8 C79.5,2.3 80.3,2.8 80.9,3.6 C81.5,4.3 82,5.2 82.4,6.1 C82.8,7 82.9,8 82.9,8.9 C82.9,9.8 82.8,10.7 82.5,11.5 C82.2,12.3 81.9,13.1 81.4,13.7 C80.9,14.4 80.4,14.9 79.7,15.4 C79,15.9 78.3,16.2 77.4,16.3 L83.4,25.8 L80.7,25.8 L74.9,16.7 L67.6,16.7 L67.6,25.8 L65.3,25.8 Z M67.8,14.5 L75.8,14.5 C76.5,14.5 77.2,14.3 77.8,14 C78.4,13.7 78.9,13.3 79.3,12.7 C79.7,12.2 80,11.6 80.3,10.9 C80.5,10.2 80.6,9.5 80.6,8.8 C80.6,8.1 80.5,7.3 80.2,6.7 C79.9,6 79.6,5.4 79.1,4.9 C78.6,4.4 78.1,4 77.5,3.7 C76.9,3.4 76.2,3.2 75.6,3.2 L67.8,3.2 L67.8,14.5 Z" id="Shape" fill="#132235"></path>
            <polygon id="Shape" fill="#132235" points="112.4 3.3 103.6 3.3 103.6 25.8 101.2 25.8 101.2 3.3 92.4 3.3 92.4 1.1 112.4 1.1 112.4 3.3"></polygon>
            <path d="M130.7,1.1 L132.7,1.1 L142.9,25.7 L140.3,25.7 L137.1,18 L126,18 L122.8,25.7 L120.2,25.7 L130.7,1.1 Z M136.6,16.2 L131.6,4 L126.6,16.2 L136.6,16.2 Z" id="Shape" fill="#132235"></path>
            <polygon id="Shape" fill="#132235" points="153.4 25.8 153.4 1.1 155.8 1.1 155.8 23.6 170 23.6 170 25.8 153.4 25.8"></polygon>
        </g>
    </g>
</svg>