<?xml version="1.0" encoding="UTF-8"?>
<svg width="751px" height="276px" viewBox="0 0 751 276" version="1.1" xmlns="http://www.w3.org/2000/svg" xmlns:xlink="http://www.w3.org/1999/xlink">
    <!-- Generator: Sketch 51.3 (57544) - http://www.bohemiancoding.com/sketch -->
    <title>LOGOS OFICIALES GOBIERNO_MIC (1) (2)</title>
    <desc>Created with Sketch.</desc>
    <defs></defs>
    <g id="LOGOS-OFICIALES-GOBIERNO_MIC-(1)-(2)" stroke="none" stroke-width="1" fill="none" fill-rule="evenodd">
        <polygon id="Fill-1" fill="#04183B" points="142.4121 108.7541 149.6701 128.6131 171.6531 129.0721 154.1401 141.7881 160.4961 161.8981 142.4121 149.9531 124.3111 161.8981 130.6451 141.7881 113.1121 129.0721 135.1191 128.6131"></polygon>
        <path d="M151.5478,198.3423 C151.1928,198.2883 146.5138,195.8403 144.3788,195.1953 C142.8408,194.7313 140.6898,194.5913 139.9478,194.6643 C138.1098,194.7783 136.6558,195.1183 136.6558,195.1183 L139.5858,196.6173 C139.5858,196.6173 141.9898,197.4143 143.2548,198.0813 C145.0698,198.9653 145.1538,200.0793 145.1538,200.0793 L153.6108,204.7033 L155.6668,206.0903 C155.6668,206.0903 157.8548,203.8543 163.5278,204.2043 C163.5278,204.2043 152.1198,198.4563 151.5478,198.3423 Z" id="Fill-2" fill="#04183B"></path>
        <path d="M171.0733,196.8247 C170.2803,196.9347 167.1913,196.9597 165.8853,197.0077 C165.1533,197.0487 163.7533,197.2057 163.0483,197.2057 C162.2573,197.2057 160.3063,197.0487 159.9693,197.0077 C159.6183,196.9597 158.3853,196.3727 160.2313,196.0717 C162.0823,195.7687 163.7353,195.9137 164.8913,195.8107 C165.5383,195.7787 166.8283,195.4557 167.4513,195.3777 C168.4573,195.2577 170.8193,195.0017 171.4693,195.0017 C172.1133,195.0017 174.1883,194.6837 175.0763,194.7987 C175.3743,194.8517 176.2693,195.2577 175.5493,195.8107 C174.8073,196.3727 171.8583,196.7067 171.0733,196.8247 Z M158.8903,191.1077 C159.3043,190.3837 161.3913,185.9667 162.1293,184.7337 C162.9083,183.4897 164.6343,180.2077 165.6563,178.8387 C166.1963,178.0937 168.2603,175.9377 168.7573,176.9067 C169.1343,177.6457 167.8853,178.9577 167.6413,179.1867 C167.3293,179.4207 165.8633,181.5867 165.8143,181.7297 C165.7553,181.8477 163.9713,184.9057 163.9713,184.9057 C163.9713,184.9057 161.9443,188.6437 161.7353,189.0027 C161.5473,189.3737 160.3583,191.6027 159.9223,192.1017 C159.4933,192.6007 159.2273,193.2837 158.5623,193.3627 C157.8643,193.4357 157.8373,193.1227 157.8373,193.1227 C157.8373,193.1227 158.4383,191.8577 158.8903,191.1077 Z M178.1873,193.4867 C176.4273,192.9087 173.4303,192.4867 170.9003,192.5347 C168.3923,192.5657 166.0803,193.2987 164.0343,194.0337 C161.9993,194.7787 159.3493,194.7987 159.3493,194.7987 C159.3493,194.7987 157.8643,195.0297 158.5623,194.7277 C159.2273,194.4047 161.5473,192.6647 161.5473,192.6647 L163.0483,190.7067 C163.0483,190.7067 167.5773,182.3737 169.5013,179.1037 C170.6733,177.1987 172.7723,173.2977 172.2453,172.7257 C172.0083,172.4697 166.3463,174.4547 165.0963,175.5017 C163.6403,176.7087 162.6533,179.1867 162.2203,180.6087 C161.7943,182.0197 159.6183,183.1917 159.6183,183.1917 C157.8373,184.4067 156.5423,188.2377 155.9503,191.4037 C155.3393,194.5287 145.2073,195.7217 145.2073,195.7217 C145.2073,195.7217 139.9953,198.2687 149.2363,197.0847 C149.7963,197.1007 151.8163,196.8977 152.5223,196.9347 C153.5083,197.0277 154.9453,197.2367 155.7283,197.4087 C156.6373,197.6017 158.8393,198.1257 160.7503,198.7157 C162.6533,199.3307 164.2283,199.6437 165.5573,199.1997 C166.9153,198.7157 168.8403,198.9077 170.2803,199.1677 C171.7283,199.4597 173.2923,199.3307 174.2253,199.0597 C175.2003,198.7737 177.7923,197.4087 177.7923,197.4087 C177.7923,197.4087 180.5903,196.2577 182.1993,195.5347 C183.8113,194.7987 182.8483,194.5087 182.8483,194.5087 C182.8483,194.5087 179.9623,194.0857 178.1873,193.4867 Z" id="Fill-4" fill="#04183B"></path>
        <path d="M174.7422,179.73 C175.1982,178.839 175.8202,176.522 176.8062,175.518 C177.7922,174.501 178.8122,173.085 179.2852,173.406 C179.7252,173.72 179.7252,174.21 179.1892,175.089 C178.6762,175.969 178.0072,176.276 177.7012,176.719 C177.1492,177.423 176.5992,179.151 176.1592,179.927 C175.7572,180.688 174.9082,181.921 173.4642,182.718 C172.0282,183.53 171.7302,184.229 171.5922,184.77 C171.4722,185.385 171.0022,187.008 169.9572,188.872 C169.6062,189.479 168.1932,190.425 167.4512,190.81 C166.7332,191.181 166.0352,192.14 165.6252,191.831 C164.7552,191.175 166.4102,189.686 168.3902,188.352 C168.3902,188.352 169.3792,187.535 169.8382,186.093 C170.3202,184.645 170.4342,183.718 171.6592,182.422 C173.2062,180.761 174.4332,180.364 174.7422,179.73 Z M164.5772,192.873 C166.6072,192.368 167.5822,192.155 169.2962,191.431 C171.3972,190.549 172.6472,188.738 174.2252,187.239 C175.8202,185.728 178.6762,181.37 179.5282,179.605 C180.3822,177.833 183.2172,175.188 179.8672,169.596 C179.8672,169.596 179.3432,170.658 178.1042,171.698 C176.8442,172.762 174.9992,173.965 174.9992,173.965 L172.8632,175.906 C172.8632,175.906 165.2382,189.237 164.2422,191.311 C164.0342,191.737 162.5512,193.394 164.5772,192.873 Z" id="Fill-6" fill="#04183B"></path>
        <path d="M187.409,185.8743 C187.005,185.8743 184.6,185.5413 181.106,185.5413 C177.633,185.5413 176.325,186.6863 175.437,187.6143 C174.433,188.6593 171.729,191.0503 171.729,191.0503 L173.192,190.9353 C176.7,188.3103 179.343,188.4253 180.432,188.3513 C181.576,188.3103 183.679,188.4773 187.202,187.2903 C190.761,186.1123 189.893,187.9993 189.51,188.1233 C189.104,188.2373 187.409,189.3743 184.799,189.4883 C182.15,189.6183 179.528,190.2473 178.495,190.2473 C177.437,190.2473 174.62,191.6953 174.62,191.6953 C174.62,191.6953 177.772,192.2543 178.674,192.5403 C179.576,192.8733 180.996,192.7213 182.15,192.2063 C185.352,190.7683 186.806,190.5043 188.109,190.2273 C189.435,189.9833 191.015,189.1233 191.015,189.1233 C191.015,189.1233 191.874,188.6123 192.635,187.2393 C193.436,185.8743 192.187,186.2433 192.187,186.2433 C192.187,186.2433 187.8,185.8743 187.409,185.8743 Z" id="Fill-8" fill="#04183B"></path>
        <path d="M194.6032,167.0225 C195.2422,166.2005 195.9332,165.2835 196.2882,164.3625 C196.8172,163.0975 198.1192,160.1795 199.5392,159.0295 C200.3842,158.3155 201.8592,157.9725 202.6522,157.6655 C202.9772,157.5655 206.2262,158.1975 203.2042,158.9515 C201.9732,159.2685 200.6282,159.7445 199.8762,160.9355 C199.0972,162.1485 198.2572,163.9355 198.1522,164.2535 C198.0482,164.5545 197.2012,166.7115 195.7932,168.1595 C194.3662,169.5955 192.4472,170.7105 192.4472,170.7105 L190.8182,171.6475 C190.8182,171.6475 188.6582,171.0435 190.9482,169.7765 C193.1832,168.5535 193.9602,167.8365 194.6032,167.0225 Z M207.7382,163.7325 C204.1432,164.7525 203.5792,167.5495 202.0032,169.3035 C201.2122,170.2305 199.7682,171.4335 196.0022,172.9805 C192.5362,174.4025 191.9912,174.5015 191.9342,174.5015 C191.9342,174.5015 190.8402,174.7205 191.0332,175.2295 C191.1352,175.4585 192.0552,175.2765 192.0552,175.2765 C192.0552,175.2765 196.2702,174.5745 199.2552,172.8505 C201.1472,171.6985 202.3962,171.5265 204.1872,168.8775 C204.9972,167.7055 205.8752,165.5115 205.9472,166.9285 C206.0842,170.6785 199.9752,174.3345 197.2862,175.4485 C195.8662,176.0325 193.9602,176.2605 191.4852,176.6725 C189.0172,177.0895 187.5312,176.9535 187.6952,176.4485 C187.9632,175.6885 188.2362,175.5435 188.8962,174.8035 C190.0522,173.4795 192.9012,173.0005 194.9742,172.0755 C197.4482,171.0055 199.7682,169.4705 200.9482,168.1435 C202.1412,166.8095 202.5462,166.3085 202.8812,165.1695 C203.7942,162.2025 203.8422,160.5665 204.6902,159.5185 C207.6982,155.9835 208.1302,154.8325 208.2902,153.2655 C208.3102,152.9005 206.7322,154.0885 205.8752,154.5465 C204.2652,155.4515 203.6802,155.4515 200.3582,156.2865 C197.0042,157.0875 197.0532,159.1665 196.5522,160.1385 C196.4062,160.5125 195.0222,162.1485 194.3662,162.4625 C193.7182,162.7425 192.1102,164.9715 191.5302,166.2635 C191.0862,167.2325 190.3072,167.9095 189.6792,167.8265 C189.0172,167.7055 190.9482,160.8685 191.3542,159.7315 C191.8222,158.5975 191.9172,156.3835 191.9172,155.6705 C191.9172,154.9525 191.2652,153.9735 189.9602,153.7745 C188.6582,153.5675 188.8712,151.9415 188.8712,151.9415 C185.7662,154.5095 187.9002,158.0775 188.2362,160.7635 C188.5732,163.4305 187.5942,168.3565 187.5942,168.3565 C190.6112,169.5955 188.2362,173.0855 187.3022,174.2105 C186.3182,175.3495 184.4562,175.5525 183.6272,176.5625 C182.7402,177.6205 177.9162,184.6555 177.9162,184.6555 L184.2792,183.8745 C184.2792,183.8745 184.9962,183.9785 183.8282,183.1245 C182.6532,182.3275 184.2172,179.1865 185.2332,178.4215 C187.1642,176.9695 189.7552,178.0165 189.7552,178.0165 C189.7552,178.0165 193.3882,178.5515 197.8522,176.8755 C201.5712,175.4585 203.1752,173.1935 204.9282,171.4855 C205.8752,170.5425 207.6472,167.4555 208.7632,165.6375 C209.4262,164.5815 210.6102,162.5645 209.8882,162.7995 C208.2902,163.3265 207.7382,163.7325 207.7382,163.7325 Z" id="Fill-10" fill="#04183B"></path>
        <path d="M191.9346,174.5011 L191.9166,174.5011 L191.9346,174.5011 Z" id="Fill-12" fill="#04183B"></path>
        <path d="M189.4176,181.3178 C190.3936,180.2818 189.5176,178.5478 188.0306,178.6298 C187.3106,178.6658 186.5156,178.5058 185.0896,180.3548 C183.6826,182.2288 185.7666,182.8898 186.5156,182.9618 C186.8666,182.9778 187.3106,182.8438 187.8096,182.6408 C188.3536,182.4218 188.4336,182.3328 189.4176,181.3178 Z" id="Fill-14" fill="#04183B"></path>
        <path d="M182.7029,174.1841 C182.8659,174.2721 183.5089,174.8041 184.0259,174.8041 C184.5609,174.8041 186.0659,174.1211 186.9099,172.8761 C187.7779,171.6471 188.4649,170.3131 186.7089,169.4811 C185.1349,168.7101 184.0339,169.4391 183.3789,170.5421 C182.4719,172.0211 181.9709,173.6881 182.7029,174.1841 Z" id="Fill-16" fill="#04183B"></path>
        <path d="M188.2474,148.6143 C187.1824,147.5473 186.5824,145.7463 186.5824,145.7463 C184.4324,146.8803 183.7184,149.1503 183.7184,150.0673 C183.7184,150.9853 184.0934,153.0363 183.7574,155.0983 C183.6434,155.8283 183.5094,156.6293 182.4634,159.1953 C181.3604,161.7483 182.5894,164.0763 182.8484,164.9143 C183.0454,165.7303 183.9114,168.2583 183.9114,168.2583 C183.9114,168.2583 184.7514,167.7373 185.0454,167.6953 C185.3814,167.5853 186.5154,167.6483 186.5154,167.6483 C186.5154,167.6483 187.0644,165.3203 187.1054,164.0763 C187.1434,163.1643 186.9894,161.6183 186.5154,159.2233 C185.8844,155.7433 185.9434,154.7553 186.3544,152.8023 C186.8054,150.8493 188.7724,149.5373 188.7724,149.5373 C188.7724,149.5373 188.9384,149.2763 188.2474,148.6143 Z" id="Fill-18" fill="#04183B"></path>
        <path d="M194.1216,151.9417 C194.8466,150.7867 194.6446,149.5377 194.6446,149.5377 C192.9226,146.3597 190.6106,148.9217 190.6106,148.9217 C188.5276,152.9677 192.4536,153.1457 192.4536,153.1457 C192.4536,153.1457 193.5546,152.9007 194.1216,151.9417 Z" id="Fill-20" fill="#04183B"></path>
        <path d="M195.4738,152.0458 C195.4738,152.0458 195.1088,152.9528 193.9648,153.6608 C192.7558,154.3898 193.4558,155.4218 193.4558,157.2748 C193.4558,159.1338 192.1128,162.3998 192.1128,162.3998 L191.6048,163.5138 C191.6048,163.5138 191.6528,164.3358 192.4538,162.8308 C193.7908,160.2898 195.2668,160.9098 195.8108,158.1758 C196.1738,156.1338 199.6918,155.4788 199.6918,155.4788 L198.6968,155.3118 C195.0198,153.6608 198.9048,149.5628 199.5398,148.8488 C200.2038,148.1308 200.8338,148.1308 198.6968,148.2238 C196.5248,148.3278 195.4738,152.0458 195.4738,152.0458 Z" id="Fill-22" fill="#04183B"></path>
        <path d="M201.6436,154.1714 C201.9436,154.0054 202.6486,153.2174 202.6486,153.2174 C203.9936,151.3914 202.7606,150.1344 202.0666,149.9534 C201.4056,149.7344 199.9536,149.5684 198.7226,152.1134 C197.5786,154.4724 200.8626,154.6024 201.6436,154.1714 Z" id="Fill-24" fill="#04183B"></path>
        <path d="M195.7027,148.334 C196.1067,148.172 195.7827,147.184 195.7827,147.184 C195.7827,147.184 195.7027,145.882 195.2667,144.308 C194.8457,142.736 193.5537,140.966 192.6987,139.672 C191.8597,138.388 190.2637,136.59 189.4867,134.561 C188.6957,132.505 188.9777,128.498 189.0327,128.02 C189.1037,127.566 189.3607,127.873 188.9377,127.403 C188.5057,126.922 186.4607,125.821 186.4607,125.821 C186.4607,125.821 186.5987,126.547 186.5157,128.844 C186.4797,129.401 186.3167,130.039 186.2317,131.012 C186.1687,131.937 186.7287,133.079 188.1217,135.727 C189.7547,138.782 190.5327,140.643 191.4077,142.132 C192.3747,143.85 195.0737,148.642 195.7027,148.334 Z" id="Fill-26" fill="#04183B"></path>
        <path d="M210.5394,121.284 C210.1644,121.637 204.6214,126.195 204.2934,126.398 C204.0374,126.601 201.1294,127.487 198.4664,134.288 C195.8504,141.096 196.9744,147.445 196.9744,147.445 L198.2614,147.302 L198.4664,146.619 C198.4664,146.619 198.9044,144.371 199.2514,142.662 C199.6164,140.966 200.1544,138.299 201.4564,136.561 C202.7274,134.861 204.2554,132.726 204.2554,132.726 C204.2554,132.726 205.2754,130.582 205.4944,130.223 C207.3174,127.297 207.1934,126.945 208.8644,125.291 C210.4874,123.676 209.6134,125.612 209.6134,125.612 L208.2934,128.246 C208.2934,128.246 206.8934,130.826 206.4834,131.43 C206.0294,132.051 205.0154,134.071 203.2484,136.313 C201.8674,138.123 200.3834,142.819 200.3834,142.819 L199.6914,147.302 L201.2394,146.902 C203.4644,144.923 206.4144,140.828 208.3964,138.186 C210.3954,135.514 211.2494,131.365 211.5964,129.518 C211.9674,127.696 211.8764,119.383 211.8764,119.383 C211.8764,119.383 210.8944,120.953 210.5394,121.284 Z" id="Fill-28" fill="#04183B"></path>
        <path d="M190.4451,119.2576 C190.4451,119.2576 190.7611,121.7326 190.7611,123.2296 C190.7611,124.7486 190.8991,127.3006 190.8401,128.6506 C190.7611,130.0006 190.0591,132.2426 191.0621,134.4396 C192.1041,136.6076 193.2701,137.7126 194.0831,139.0896 C194.8481,140.4126 195.8701,143.1516 195.8701,143.1516 C195.8701,143.1516 195.6961,137.9726 196.1411,135.3146 C196.5151,132.7256 196.6591,128.6506 196.0561,126.6226 C195.4281,124.5856 194.3671,122.1756 192.9761,120.8976 C191.5461,119.6116 190.4451,119.2576 190.4451,119.2576 Z" id="Fill-30" fill="#04183B"></path>
        <path d="M199.5,122.4904 C199.5,122.4904 199.614,121.6784 199.54,122.5884 C199.478,123.4984 199.975,125.6834 201.857,125.8734 C203.865,126.0494 204.534,123.7814 204.546,122.7034 C204.566,122.2704 204.408,119.9264 202.104,119.8634 C199.54,119.7584 199.5,122.4904 199.5,122.4904 Z" id="Fill-32" fill="#04183B"></path>
        <path d="M205.7477,122.8549 C205.7477,122.8549 205.6427,121.0409 205.6427,120.1329 C205.6427,119.2579 205.1887,115.8639 205.1887,115.8639 L204.1907,116.5309 C203.0077,117.4359 202.3487,119.0279 202.3487,119.0279 C202.3487,119.0279 203.0307,118.9349 204.1157,119.3039 C205.2367,119.6789 205.7477,122.8549 205.7477,122.8549 Z" id="Fill-34" fill="#04183B"></path>
        <path d="M201.405,106.7496 C201.54,105.6806 201.644,103.9506 201.599,102.7686 C201.571,101.9526 201.23,100.5556 201.599,100.4666 C201.936,100.3996 202.003,101.1656 202.199,102.3526 C202.293,102.7846 202.441,103.8576 202.376,105.3606 C202.313,106.5716 202.349,107.4796 201.788,109.0966 C201.295,110.5296 200.833,112.0386 200.545,112.4856 C200.212,112.9336 199.342,114.6526 199.342,114.6526 C199.342,114.6526 198.817,116.0486 198.904,117.3106 C198.947,118.6056 199.048,120.0016 199.048,120.0016 C199.048,120.0016 199.65,118.8806 201.058,118.7116 C201.058,118.7116 201.405,116.5306 201.405,115.8576 C201.405,115.1886 202.293,110.7426 202.761,109.3956 C203.394,107.3986 203.84,103.9326 202.816,99.9276 C202.546,98.8526 202.349,95.4456 202.349,95.4456 C202.349,95.4456 200.999,96.4636 200.212,100.3526 C199.975,101.5296 200.49,104.6806 200.281,108.0426 C200.204,109.8976 199.768,111.2646 199.5,111.7306 C199.954,110.9416 200.948,109.2786 201.405,106.7496 Z" id="Fill-36" fill="#04183B"></path>
        <path d="M199.425,111.9026 C199.425,111.9026 199.478,111.8316 199.5,111.7306 C199.445,111.8316 199.425,111.9026 199.425,111.9026 Z" id="Fill-38" fill="#04183B"></path>
        <path d="M194.225,92.2132 C194.935,92.2132 194.935,92.9402 194.809,93.5242 C194.677,94.1322 194.708,95.2532 194.708,95.4832 C194.708,95.7362 195.006,97.3322 195.243,98.1562 C195.503,99.0222 195.949,99.3012 195.744,101.0092 C195.614,102.0862 194.45,103.3472 194.872,105.1852 C195.091,106.1452 195.811,107.1762 196.158,107.9962 C196.478,108.5762 197.034,110.1082 197.101,111.2572 C197.141,112.3882 197.082,113.0192 197.082,113.0192 C197.082,113.0192 196.263,114.4592 196.002,112.6892 C195.696,110.5972 195.598,109.6862 195.18,108.7522 C194.529,107.2352 192.694,104.3802 193.744,102.2562 C193.927,101.8552 194.552,101.2102 194.552,100.3072 C194.552,99.3922 193.596,97.5772 193.487,96.6182 C193.389,95.8422 193.436,94.7872 193.436,94.2072 C193.436,93.6612 193.566,92.2132 194.225,92.2132 Z M192.694,106.8312 C193.138,107.6612 194.087,109.7942 194.225,110.4682 C194.394,111.1412 194.552,111.9662 194.552,112.1672 C194.552,112.4132 194.708,113.9972 194.708,113.9972 L194.708,114.6562 C194.708,114.6562 190.903,112.5292 189.23,111.4092 C187.573,110.2692 185.691,108.6982 184.501,107.7432 C183.119,106.6752 179.868,102.9872 179.82,100.0322 L178.315,98.7442 C178.315,98.7442 177.181,105.3132 182.582,109.5412 C184.124,110.7702 185.813,112.1132 189.435,113.6822 C193.049,115.2752 193.744,117.1532 195.267,120.2232 C196.752,123.3162 197.141,124.8042 197.326,125.6892 C197.456,126.6142 197.937,130.5962 197.937,130.5962 L198.078,131.7952 C198.078,131.7952 199.741,128.5672 201.327,127.2282 C201.327,127.2282 198.168,126.7622 198.413,122.0182 L197.869,118.8812 C197.869,118.8812 197.224,115.1172 198.413,112.7822 C198.413,112.7822 199.831,108.5172 199.346,104.8112 C199.05,102.6132 198.941,101.9242 198.649,99.8172 C198.218,96.5252 196.845,91.8092 196.687,91.2362 C196.217,89.5752 196.056,89.3272 195.503,88.0272 C195.328,87.5432 195.022,86.0402 194.529,86.0012 C194.225,86.0012 193.773,87.9792 193.773,87.9792 C193.773,87.9792 193.112,90.1182 192.974,90.7112 C192.536,92.4512 191.534,93.9192 191.061,97.8292 C190.998,98.5452 190.903,100.4532 190.818,100.7052 C190.757,100.9222 190.686,102.0422 190.757,102.4842 C190.946,103.6372 191.329,104.3052 192.694,106.8312 Z" id="Fill-40" fill="#04183B"></path>
        <path d="M192.4947,117.2604 C191.3547,116.0104 189.8217,114.9164 185.5017,112.8884 C181.1737,110.8444 180.0567,107.4794 177.8707,106.0984 C176.8457,105.4514 174.9067,105.1084 174.9067,105.1084 C174.9067,105.1084 176.8137,107.6284 177.2757,108.5054 C177.8707,109.6064 178.0097,110.3694 180.3847,112.4814 C182.7397,114.5934 185.6167,115.3304 187.4667,115.8674 C190.0907,116.6364 193.5957,119.0314 193.5957,119.0314 C193.5957,119.0314 193.0417,117.8594 192.4947,117.2604 Z" id="Fill-42" fill="#04183B"></path>
        <path d="M184.291,105.7753 C187.861,110.0693 193.53,112.6893 193.53,112.6893 C192.901,110.0143 192.256,107.9483 191.356,106.5713 C188.236,101.7393 180.814,100.5303 180.814,100.5303 C180.814,100.5303 180.687,100.3503 180.854,100.7013 C180.962,101.0333 181.947,102.9423 184.291,105.7753 Z" id="Fill-44" fill="#04183B"></path>
        <path d="M189.9678,98.7839 L189.5158,98.2789 L187.0048,95.2839 C187.0048,95.2839 186.0638,94.4479 185.0898,92.7239 C184.6768,92.0139 184.3478,91.6249 184.6478,91.3509 C185.2118,90.9009 185.8878,92.0529 186.5218,92.8229 C187.4348,93.9589 189.9678,97.2829 189.9678,97.2829 L190.7568,93.7599 L184.4308,89.1909 C184.3478,90.0099 182.9238,90.3569 182.9238,90.3569 C181.9428,95.6299 189.8418,101.5949 189.8418,101.5949 L189.9678,98.7839 Z" id="Fill-46" fill="#04183B"></path>
        <path d="M177.1192,94.1198 L177.1612,95.5528 L177.6622,96.1608 C177.6622,96.1608 179.7372,99.0048 180.9412,99.3758 C181.4382,99.5408 183.3142,99.8688 185.2102,100.6288 C187.5872,101.5948 190.0152,103.0098 190.0152,103.0098 C190.0152,103.0098 183.3352,99.2578 182.0652,93.3708 L181.4732,90.8278 L180.2052,90.6368 C180.2052,90.6368 180.8542,92.7398 179.2602,93.4318 C177.6622,94.1198 177.1192,94.1198 177.1192,94.1198 Z" id="Fill-48" fill="#04183B"></path>
        <path d="M157.7957,90.6881 C159.2277,91.4931 163.3307,93.8051 166.3937,94.3531 C167.0987,94.4681 169.2627,94.3531 169.2627,94.3531 C169.4357,92.7391 171.2747,92.6041 171.2747,92.6041 L167.4807,92.6041 C165.9127,92.6041 162.4567,91.5951 160.8197,90.9481 C159.7547,90.4931 157.3117,89.1101 156.5917,88.7011 C155.8437,88.3111 155.8437,87.2691 157.1357,87.7331 C157.9827,88.0481 160.0227,89.3311 162.1907,90.2141 C164.5047,91.1421 166.9267,91.6541 167.9327,91.6191 C168.0437,91.3171 164.6937,90.7911 162.7997,89.6471 C160.7957,88.4791 159.0877,86.5061 159.0877,86.5061 L154.1977,86.3011 C154.1977,86.3011 151.7967,86.1511 154.3017,88.2101 C155.0377,88.8301 156.2407,89.8041 157.7957,90.6881 Z" id="Fill-50" fill="#04183B"></path>
        <path d="M176.055,95.8899 C176.281,94.6369 175.772,93.7139 174.188,93.3709 C173.292,93.1579 171.754,93.1259 171.113,94.6369 C170.434,96.1599 172.928,97.1509 172.928,97.1509 C172.928,97.1509 173.407,97.3599 173.979,97.2809 C175.07,97.2179 175.82,97.0139 176.055,95.8899 Z" id="Fill-52" fill="#04183B"></path>
        <path d="M174.2631,91.3941 C174.6201,93.5621 178.1121,92.6041 178.1121,92.6041 L178.7651,92.2861 C178.7651,92.2861 179.2191,91.9461 178.9601,90.2161 C178.7241,88.4511 177.2791,88.1471 175.8711,88.1471 C174.4331,88.1471 173.9651,89.2421 174.2631,91.3941 Z" id="Fill-54" fill="#04183B"></path>
        <path d="M181.4817,89.6564 C181.4537,89.6774 181.5307,89.6564 181.5307,89.6564 L181.4817,89.6564 Z" id="Fill-56" fill="#04183B"></path>
        <path d="M181.9744,89.4924 C182.7164,89.2414 183.4654,87.5754 183.4654,87.5754 C183.8094,85.3344 182.1204,84.7814 182.1204,84.7814 C179.2954,84.2374 179.2184,86.6164 179.2184,86.6164 C178.4514,89.7054 181.0704,89.6774 181.4814,89.6564 C181.5214,89.6464 181.6214,89.5994 181.9744,89.4924 Z" id="Fill-58" fill="#04183B"></path>
        <path d="M170.8128,81.8143 C171.0768,82.0363 173.0298,83.9893 173.6918,84.8643 C174.3678,85.7363 175.8178,87.0583 175.8178,87.0583 C175.8178,87.0583 176.1948,87.0093 176.3608,86.7013 C176.7388,86.0793 175.6208,83.9173 175.4348,83.5863 C175.2758,83.2743 174.1908,81.5983 174.1908,81.5983 C174.1908,81.5983 172.7718,80.0713 172.5408,79.9253 C172.2808,79.7513 171.3628,78.6463 170.3518,77.4393 C169.3398,76.2403 171.0028,76.6033 171.2768,76.7573 C171.8978,77.0843 172.9008,78.1103 173.2848,78.6543 C173.8198,79.4203 174.1908,80.0103 175.4348,81.6633 C176.5988,83.1683 176.6638,83.5863 177.1968,85.8193 C177.7768,88.0923 178.1908,87.1573 178.1908,87.1573 C178.1908,87.1573 178.7238,86.5253 178.5438,84.7873 C177.9168,79.6723 176.5258,78.1103 176.0648,77.3603 C175.2758,75.9873 173.2768,74.6463 171.8608,74.1683 C170.4278,73.6833 168.7378,73.0013 166.9148,72.4403 C165.0528,71.9043 166.4848,73.5233 167.1738,74.9023 C168.0458,76.5393 168.7378,78.0113 168.8838,79.0373 C169.0438,80.0713 170.5648,81.5663 170.8128,81.8143 Z" id="Fill-60" fill="#04183B"></path>
        <path d="M168.4061,90.5182 C172.2731,91.0942 172.6041,90.8382 172.6041,90.8382 C172.6041,90.8382 173.8741,90.6132 172.8611,89.8042 C171.8581,89.0152 169.8031,88.4552 169.1261,88.2142 C168.4571,87.9792 167.1711,87.5792 165.9641,86.8712 C165.2971,86.4942 163.7351,85.4722 162.3881,84.4502 C161.2651,83.5942 159.8371,82.5212 159.6121,81.4832 C159.3241,80.4502 159.8131,80.7062 159.8131,80.7062 C159.8131,80.7062 160.2831,80.2702 162.2401,82.1462 C163.3701,83.2492 164.1571,83.8072 164.8481,84.3082 C166.9151,85.7052 167.8101,86.1002 169.8661,87.1572 C170.9671,87.7332 173.7091,88.3622 173.7091,88.3622 C173.7091,88.3622 174.0961,87.5472 174.4351,87.4492 C174.7701,87.3862 173.3811,85.9142 171.0061,84.0832 C168.9191,82.4542 167.5301,80.4752 167.5301,80.4752 C167.5301,80.4752 165.5381,80.1062 162.4961,79.6112 C160.2141,79.2782 155.9151,76.1022 156.0041,76.9702 C156.0731,77.8362 156.6451,80.5982 157.7951,82.3392 C158.9491,84.1072 160.0741,85.9102 161.9121,87.4152 C163.7351,88.9382 164.5831,89.9702 168.4061,90.5182 Z" id="Fill-62" fill="#04183B"></path>
        <path d="M136.1845,194.8935 C130.7945,192.4035 124.3125,188.9165 119.7995,182.5105 C114.1535,174.5785 109.2295,170.3445 108.0495,169.4815 C106.8385,168.6275 106.6495,168.2995 106.2055,168.9195 C105.7915,169.4395 106.0815,169.8815 106.4165,170.4395 C107.5965,172.2415 110.4365,175.6265 111.4625,177.4485 C113.2325,180.7145 116.8795,184.2645 116.8485,186.3635 C116.8485,186.6555 115.7905,186.1545 115.7905,186.1545 C115.7905,186.1545 107.2415,183.3645 103.7695,173.4795 C101.2515,166.2895 102.3235,164.1965 101.7415,160.6115 C100.7355,154.2545 100.5325,153.7455 97.2435,146.6155 C97.1525,146.4225 95.2235,143.4495 94.9655,144.0895 C94.5845,144.9595 95.2825,148.1725 95.2825,148.1725 L95.6375,151.8175 C95.6375,151.8175 95.3695,159.9765 95.3695,160.4715 C95.3695,160.9825 93.2035,166.0765 102.3455,174.6265 C102.3455,174.6265 102.4915,176.0935 101.2515,174.8035 C100.3955,173.8955 93.8545,169.0965 91.8545,161.1915 C89.8045,153.2915 89.4865,145.3865 91.0655,142.1095 C92.4615,139.1345 95.2825,131.8995 94.0775,125.5525 C93.9395,124.8845 93.7405,122.9475 93.3105,123.4675 C93.1125,123.7115 92.2955,126.9065 91.8025,128.0195 C91.1125,129.5425 90.0515,131.0195 89.7045,132.0665 C89.0645,133.8515 85.9205,136.6075 86.5415,141.6525 C87.2265,147.4735 87.6045,148.3965 88.3625,150.4735 C88.6115,151.2145 89.2145,153.1455 88.8085,153.3585 C88.4655,153.5365 87.1685,151.0465 87.1685,151.0465 C87.1685,151.0465 81.3715,140.1785 84.9415,131.3735 C88.5515,122.5935 97.6105,114.2575 97.6105,114.2575 C97.6105,114.2575 104.9725,108.4345 106.4575,107.0965 C107.0555,106.5485 106.9135,106.1615 106.7185,106.2205 C104.8855,106.6675 90.7175,109.4655 85.7525,125.5585 C85.7525,125.5585 85.4865,126.2275 85.1335,126.0745 C84.6695,125.8965 85.1335,125.1275 85.1335,125.1275 C85.1335,125.1275 88.2405,113.6995 96.9835,108.5245 C106.5315,102.8435 105.3865,103.6845 108.5625,101.8845 C110.5315,100.7275 112.3305,99.1585 114.5495,95.6215 C114.7865,95.2385 115.6765,93.1895 115.5545,92.8505 C115.4615,92.5125 115.0255,92.9805 114.8285,93.5605 C114.8285,93.5605 112.1175,97.5455 108.0935,98.8945 C104.0215,100.2215 100.7355,98.3065 96.6715,102.6265 C92.5835,106.9425 89.3365,112.9185 89.3365,112.9185 C89.3365,112.9185 88.2665,114.4705 88.0215,114.4165 C87.5855,114.2815 88.2575,112.7665 88.2575,112.7665 C88.2575,112.7665 93.7125,101.7355 98.0875,99.4855 C102.4675,97.2435 106.3655,95.0775 108.8585,93.2285 C111.8735,90.9605 117.0845,85.4445 118.9625,83.5235 C119.3815,83.1125 122.1665,80.4145 122.7745,79.5305 C123.1705,79.0375 124.0405,78.3625 123.9145,78.2445 C123.4995,77.9565 120.8505,79.1755 120.8505,79.1755 C120.8505,79.1755 107.8255,83.7045 98.8395,96.6475 C98.4335,97.2435 97.1965,98.0975 96.6715,98.6105 C95.7125,99.5575 93.0455,102.6265 93.0455,102.6265 C92.4615,102.1495 99.1515,93.5605 99.1515,93.5605 L100.1275,89.1885 C100.1275,89.1885 101.8045,82.6275 105.3395,77.9995 C105.6865,77.5675 107.7495,75.5575 108.1095,75.1495 C108.8075,74.4215 106.7955,75.7905 107.1505,75.4865 C107.1505,75.4865 93.6945,84.7185 93.6945,96.3215 C93.6945,98.4235 92.3215,100.3165 90.4455,102.9105 C88.2575,105.9325 87.5385,107.7815 86.5735,112.2725 C85.9005,115.4665 85.3285,117.9095 85.3285,117.9095 C85.3285,117.9095 85.4765,119.5525 84.9125,119.4315 C84.3445,119.3275 84.5295,117.9325 84.5295,117.9325 C84.5295,117.9325 85.9005,109.2785 86.8945,106.6275 C87.8145,104.0275 88.4655,102.2715 88.4655,102.2715 C88.4655,102.2715 87.8915,95.7595 89.3985,92.1985 C90.6865,89.0785 93.9395,84.9755 94.4545,83.9615 C94.6595,83.5155 96.1585,80.5805 96.5865,77.2695 C96.6515,76.8105 96.2655,77.1785 95.6835,78.4815 C94.1895,81.6635 92.9645,82.4975 90.5165,85.4995 C90.5165,85.4995 84.2855,89.8105 82.0185,102.6505 C82.0185,102.6505 81.9595,107.4425 81.1845,114.9375 C80.6335,120.4225 81.1065,125.5585 81.7625,128.6735 C82.1705,130.5495 82.9515,130.5725 82.4835,130.8025 C82.1705,130.9485 82.0185,131.0705 81.3205,129.6405 C80.4715,127.9315 79.6595,125.0405 79.6595,121.3865 C79.6595,114.6935 80.2745,109.3115 80.2745,109.3115 C80.2745,109.3115 81.5175,98.4915 76.8185,93.6275 C76.5815,93.3595 77.6275,95.8055 78.1045,98.2355 C78.6785,101.2555 77.6275,105.4515 77.3235,107.0965 C77.0255,108.7255 73.8935,115.8815 74.9895,122.5935 C74.9895,122.5935 77.6465,133.9665 81.0755,139.4765 C81.0755,139.4765 82.1645,142.1095 80.2745,139.8675 C78.4165,137.6625 75.6175,128.5405 75.2875,127.8015 C74.9895,127.0665 72.2575,121.5625 69.6835,119.3275 C68.3435,118.1355 64.6785,116.0255 64.6785,116.0255 C64.6785,116.0255 62.6895,114.5795 64.1995,116.5065 C65.3925,118.0335 66.9985,120.7525 67.7555,121.9315 C69.6835,124.8845 71.1295,127.7185 71.9935,129.5885 C73.2125,132.1545 76.0685,139.7285 76.0685,139.7285 L77.7835,144.2055 C77.7835,144.2055 80.9645,146.1625 82.6225,147.9275 C83.9935,149.3655 86.8315,152.6565 89.1715,158.5185 C90.2285,161.0965 91.2135,162.8315 91.2135,162.8315 C91.2135,162.8315 91.2135,165.3565 89.3365,162.2215 C87.4685,159.1185 86.0115,153.4375 81.5425,148.8295 C78.1555,145.3195 69.3615,140.4805 69.3615,140.4805 C69.3615,140.4805 75.2025,150.2455 76.6885,151.9545 C79.1425,154.7705 82.6885,158.6805 83.6275,159.7125 C84.5735,160.7635 90.0885,167.2615 90.9135,168.2995 C92.1895,169.9285 93.0385,170.6585 93.7125,171.3195 C95.1605,172.7935 99.7965,174.8505 100.1275,176.6735 C100.1985,177.0935 99.2895,176.5215 98.9145,176.2765 C97.0065,175.1875 95.2825,174.0005 92.9235,172.5105 C90.5835,171.0435 83.1745,170.7605 75.4965,158.2385 C74.0625,155.8575 73.3625,154.9115 72.8745,155.1555 C72.1155,155.5245 76.9775,170.8975 86.9875,175.7885 C86.9875,175.7885 98.0205,180.4685 100.4755,181.8695 C101.8045,182.6605 104.5305,183.7915 105.7735,184.7655 C106.4795,185.3175 105.1325,185.2905 105.0355,185.2805 C99.1805,184.8325 90.7575,184.0735 85.5885,181.2405 C85.5885,181.2405 83.3655,179.7395 85.1945,181.8225 C86.6425,183.4375 89.3825,187.4215 94.6985,189.6695 C99.9935,191.8985 107.7145,193.2065 110.5315,193.3405 C113.3035,193.4865 123.2005,193.5185 125.0855,194.1185 C126.9365,194.7275 130.5225,195.5955 132.3285,196.1535 C133.9825,196.6525 138.9265,198.4755 138.9265,198.4755 C138.9265,198.4755 140.4145,199.2475 141.1955,199.5165 C142.1185,199.8665 145.5585,200.7995 145.8315,200.1215 C146.0555,199.5545 144.7695,198.0275 144.7695,198.0275 C144.7695,198.0275 140.2775,196.8205 136.1845,194.8935 Z" id="Fill-64" fill="#04183B"></path>
        <path d="M120.1171,202.6515 L116.6151,203.9915 C121.4491,202.9595 125.1711,205.2615 125.1711,205.2615 L140.4491,198.8185 C140.4491,198.8185 140.4001,198.6115 140.0551,198.3925 C139.6861,198.1485 137.3421,196.9245 135.6401,197.4025 C133.9791,197.8625 120.1171,202.6515 120.1171,202.6515 Z" id="Fill-66" fill="#04183B"></path>
        <path d="M116.5959,204.5478 C117.1919,204.9798 116.9899,205.1198 119.8469,205.7568 C122.6919,206.3918 124.6269,205.9638 125.1789,205.4168 C125.8359,204.7668 118.2019,202.7458 116.5879,204.0168 C116.5109,204.0998 116.3889,204.4168 116.5959,204.5478 Z" id="Fill-68" fill="#04183B"></path>
        <path d="M93.9336,158.4007 L94.2136,155.1617 C94.2136,155.1617 94.3596,146.3137 93.6576,144.5327 C93.5096,144.1417 92.9726,143.2307 92.5136,143.2147 C91.6486,143.1317 91.6486,146.0057 91.5426,148.6107 C91.3846,153.0937 93.6216,162.4777 93.6216,162.4777 L93.9336,158.4007 Z" id="Fill-70" fill="#04183B"></path>
        <path d="M155.8008,205.293 C156.6808,204.443 159.3498,203.954 159.8878,203.922 C160.4128,203.887 161.9198,203.922 163.0628,204.106 C164.1868,204.268 165.7628,204.948 165.3088,205.475 C164.8848,205.995 163.3798,206.652 161.2688,206.735 C159.4738,206.792 158.5628,206.767 157.7808,206.641 C156.9918,206.481 156.3848,206.339 156.3848,206.339 C156.3848,206.339 154.8978,206.146 155.8008,205.293 Z" id="Fill-72" fill="#04183B"></path>
        <path d="M53.6514,191.4982 L52.5014,189.5932 C52.3734,189.3782 52.0774,189.0092 51.6074,188.4872 C51.3604,188.2222 51.0534,188.1032 50.7084,188.0562 C50.3534,188.0092 49.9974,188.0712 49.6604,188.2692 C49.2044,188.5512 48.9244,188.8942 48.8654,189.3632 C48.7714,189.8112 49.0074,190.4462 49.5044,191.2692 L50.6704,193.2642 L53.6514,191.4982 Z M65.0734,190.8312 L50.4164,199.5492 L45.9304,192.0192 C45.1014,190.6022 44.5804,189.4982 44.3954,188.6022 C44.1494,187.7282 44.2634,186.8742 44.6384,186.0302 C45.0144,185.1872 45.6814,184.4892 46.6284,183.9312 C47.4174,183.4372 48.2264,183.2072 49.0174,183.1822 C49.8304,183.1822 50.5794,183.3912 51.3054,183.7812 C51.7574,184.0312 52.2864,184.4362 52.8384,185.0102 C52.7044,184.3752 52.6394,183.8952 52.6714,183.5152 C52.7044,183.2802 52.8184,182.9012 53.0164,182.3272 C53.2134,181.7902 53.3994,181.3992 53.5454,181.1712 L56.4874,176.4542 L59.5064,181.5772 L56.4874,186.6452 C56.0974,187.2902 55.9004,187.7792 55.8624,188.1352 C55.8334,188.5992 55.9454,189.0242 56.1604,189.4362 L56.4244,189.8372 L62.3624,186.3002 L65.0734,190.8312 Z" id="Fill-74" fill="#04183B"></path>
        <polygon id="Fill-76" fill="#04183B" points="39.2485 178.9162 34.7565 165.5502 38.2165 164.3942 41.0165 172.7562 43.6045 171.9072 40.9765 164.1392 44.2845 163.0402 46.9105 170.7832 50.0745 169.7412 47.2005 161.1452 50.8655 159.9092 55.4025 173.4952"></polygon>
        <path d="M39.7202,151.7228 L39.5422,150.4518 C39.4202,149.4328 39.1632,148.7598 38.7852,148.4008 C38.3792,148.0268 37.8892,147.8798 37.3332,147.9438 C36.8122,148.0168 36.3982,148.2358 36.0672,148.6148 C35.7202,149.0208 35.6212,149.7148 35.7572,150.6938 L35.8972,152.1988 L39.7202,151.7228 Z M33.0882,157.8168 L32.0642,149.1408 C31.8492,147.2608 32.1432,145.7818 32.9102,144.7458 C33.7192,143.6838 34.9502,143.0628 36.6152,142.8808 C38.3192,142.6588 39.7302,143.0338 40.8032,143.9328 C41.8582,144.8558 42.5472,146.3908 42.8012,148.4798 L43.1212,151.3278 L49.4022,150.5948 L50.0042,155.8478 L33.0882,157.8168 Z" id="Fill-78" fill="#04183B"></path>
        <path d="M32.5,124.59 L33.054,119.391 L43.165,120.466 C44.151,120.582 45.082,120.85 45.926,121.255 C46.82,121.661 47.532,122.221 48.114,122.961 C48.688,123.711 49.108,124.435 49.295,125.218 C49.56,126.256 49.629,127.504 49.461,128.922 C49.392,129.743 49.225,130.651 48.996,131.586 C48.771,132.557 48.443,133.346 48.037,133.959 C47.625,134.592 47.094,135.145 46.406,135.604 C45.717,136.08 45.019,136.363 44.309,136.506 C43.206,136.715 42.233,136.768 41.391,136.684 L31.305,135.604 L31.849,130.387 L42.211,131.495 C43.137,131.586 43.88,131.412 44.439,130.954 C45.031,130.498 45.362,129.817 45.457,128.922 C45.559,128.012 45.372,127.278 44.924,126.717 C44.458,126.152 43.768,125.825 42.823,125.729 L32.5,124.59 Z" id="Fill-80" fill="#04183B"></path>
        <path d="M49.457,110.3078 L50.357,107.7868 C50.639,106.9188 50.712,106.2808 50.53,105.8048 C50.357,105.3568 50.01,105.0318 49.504,104.8618 C49.003,104.6978 48.569,104.7098 48.159,104.9778 C47.753,105.2168 47.38,105.7988 47.094,106.6398 L46.179,109.1718 L49.457,110.3078 Z M43.141,108.0928 L43.896,105.9508 C44.159,105.1618 44.226,104.5758 44.04,104.1738 C43.896,103.8008 43.557,103.4928 43.062,103.3308 C42.602,103.1558 42.166,103.1988 41.791,103.3998 C41.438,103.6008 41.123,104.0708 40.864,104.8318 L40.075,107.0158 L43.141,108.0928 Z M35.068,110.8918 L38.321,101.5968 C38.892,100.0508 39.683,99.0088 40.748,98.4308 C41.784,97.8998 42.884,97.7858 44.04,98.1998 C44.973,98.5528 45.682,99.1308 46.167,99.9518 C46.461,100.5058 46.628,101.2058 46.628,102.0508 C47.323,100.9948 48.106,100.3028 48.94,100.0168 C49.844,99.7088 50.787,99.7228 51.801,100.0788 C52.639,100.3898 53.306,100.8278 53.853,101.4548 C54.373,102.0748 54.705,102.7968 54.874,103.5838 C54.953,104.0888 54.902,104.7848 54.732,105.6368 C54.472,106.8368 54.302,107.5978 54.168,107.9488 L51.165,116.5178 L35.068,110.8918 Z" id="Fill-82" fill="#04183B"></path>
        <polygon id="Fill-84" fill="#04183B" points="43.7759 89.1139 46.5179 84.6239 57.5139 91.2599 61.7869 84.2569 65.3729 86.4269 58.3959 97.9199"></polygon>
        <polygon id="Fill-86" fill="#04183B" points="55.0342 72.3595 58.4272 68.3335 71.4492 79.3175 68.0402 83.3455"></polygon>
        <path d="M83.0919,61.3184 C83.6639,62.5224 83.9929,63.6484 84.0309,64.7554 C84.0779,65.8454 83.8729,66.8874 83.3919,67.8504 C82.9039,68.8164 82.0699,69.7814 80.9409,70.7634 C79.4929,71.9474 78.1479,72.7094 76.9169,73.0404 C75.6669,73.3774 74.2759,73.3034 72.7369,72.7954 C71.2239,72.3104 69.8159,71.2414 68.4349,69.6314 C66.6389,67.4514 65.8329,65.3194 66.0199,63.2204 C66.1899,61.0814 67.3339,59.1484 69.4389,57.4014 C71.1129,56.0224 72.6699,55.3024 74.1689,55.1714 C75.6669,55.0494 77.2529,55.4954 78.8379,56.4934 L75.9289,60.2494 C75.4789,59.9694 75.1019,59.7764 74.7809,59.6934 C74.3049,59.5784 73.8439,59.5784 73.3799,59.6774 C72.9169,59.7994 72.4629,60.0124 72.0779,60.3404 C71.1569,61.1054 70.7509,62.0544 70.8729,63.1964 C70.9799,64.0544 71.5159,65.0564 72.4629,66.2284 C73.6859,67.6904 74.7389,68.4854 75.6169,68.6574 C76.5299,68.8384 77.3689,68.5864 78.1479,67.9274 C78.9249,67.2724 79.3479,66.5854 79.3609,65.8324 C79.3829,65.0434 79.1739,64.1634 78.6489,63.2204 L83.0919,61.3184 Z" id="Fill-88" fill="#04183B"></path>
        <path d="M95.918,52.9977 L91.436,48.4057 L92.58,54.7057 L95.918,52.9977 Z M98.558,55.7857 L93.223,58.5017 L93.784,61.3657 L88.992,63.8157 L86.964,45.7577 L92.079,43.1387 L105.529,55.3927 L100.607,57.8977 L98.558,55.7857 Z" id="Fill-90" fill="#04183B"></path>
        <path d="M119.31,38.0529 L120.622,47.2339 L121.893,47.0399 C123.015,46.9099 123.763,46.6699 124.196,46.3619 C124.624,46.0309 124.909,45.5869 125.094,44.9359 C125.271,44.3009 125.271,43.3199 125.055,41.9589 C124.818,40.1909 124.344,38.9939 123.676,38.4259 C122.981,37.8479 121.977,37.6659 120.622,37.8479 L119.31,38.0529 Z M113.585,34.9679 L121.31,33.8589 C122.841,33.6619 124.092,33.6719 125.094,33.9489 C126.1,34.2399 126.946,34.7149 127.696,35.4059 C128.404,36.0799 128.982,36.9249 129.41,37.9149 C129.836,38.8929 130.117,39.9899 130.284,41.1199 C130.56,42.9059 130.56,44.3579 130.267,45.3839 C130.01,46.4369 129.552,47.3599 128.917,48.1249 C128.266,48.8829 127.566,49.4629 126.759,49.7899 C125.676,50.2759 124.65,50.5769 123.705,50.7079 L115.941,51.8059 L113.585,34.9679 Z" id="Fill-92" fill="#04183B"></path>
        <polygon id="Fill-94" fill="#04183B" points="136.7861 31.673 150.8511 32.723 150.5991 36.333 141.7791 35.678 141.5861 38.384 149.7411 38.988 149.4561 42.428 141.3211 41.856 141.0781 45.186 150.1471 45.841 149.8631 49.682 135.5141 48.632"></polygon>
        <polygon id="Fill-96" fill="#04183B" points="158.4599 33.6618 163.5059 35.0638 160.0169 47.4308 167.9329 49.6718 166.7749 53.6628 153.7889 49.9988"></polygon>
        <path d="M187.2119,52.5363 L188.3129,53.2503 C189.1409,53.7903 189.8419,54.0433 190.3639,53.9803 C190.9189,53.9073 191.3329,53.6573 191.6249,53.2053 C191.9169,52.7733 192.0199,52.2803 191.9329,51.7593 C191.8519,51.2583 191.3799,50.7453 190.5499,50.2083 L189.2969,49.3563 L187.2119,52.5363 Z M186.8159,43.5803 L194.1179,48.4093 C195.7179,49.4293 196.6509,50.6073 196.9269,51.8773 C197.2239,53.1673 196.9269,54.5053 195.9809,55.8903 C195.0509,57.3333 193.8899,58.1503 192.4789,58.3873 C191.0609,58.6343 189.5059,58.1663 187.7169,57.0223 L185.3039,55.4123 L181.8499,60.6773 L177.4379,57.7713 L186.8159,43.5803 Z" id="Fill-98" fill="#04183B"></path>
        <path d="M205.2973,69.5133 L208.2553,63.8293 L202.6163,66.8853 L205.2973,69.5133 Z M203.4963,72.9043 L199.2173,68.7123 L196.6513,70.1173 L192.8123,66.3433 L209.3533,58.7323 L213.4353,62.7633 L206.0253,79.3743 L202.0953,75.4983 L203.4963,72.9043 Z" id="Fill-100" fill="#04183B"></path>
        <path d="M219.3252,80.2799 L220.5172,82.1679 C220.6672,82.3469 220.9312,82.7149 221.4562,83.2119 C221.7322,83.4479 222.0022,83.6179 222.3772,83.6259 C222.7522,83.6689 223.0692,83.5779 223.4052,83.3729 C223.8582,83.0889 224.1072,82.7149 224.1702,82.2609 C224.2332,81.8149 223.9922,81.1679 223.4742,80.3769 L222.2532,78.4299 L219.3252,80.2799 Z M207.9192,81.2979 L222.3042,72.1369 L226.9992,79.5049 C227.8982,80.8679 228.4412,81.9869 228.7002,82.8569 C228.9052,83.7439 228.8422,84.6039 228.4882,85.4369 C228.1432,86.2729 227.4962,87.0089 226.6042,87.5889 C225.7962,88.1019 225.0112,88.4019 224.2012,88.4019 C223.4212,88.4389 222.6392,88.2659 221.8982,87.9279 C221.4362,87.6739 220.9032,87.2779 220.3272,86.7109 C220.4932,87.3579 220.5722,87.8399 220.5642,88.2099 C220.5362,88.4389 220.4062,88.8539 220.2522,89.3799 C220.0652,89.9469 219.8892,90.3409 219.7402,90.5919 L216.9582,95.3829 L213.7482,90.3759 L216.6292,85.2119 C217.0172,84.5509 217.2172,84.0459 217.2242,83.7049 C217.2302,83.2249 217.1472,82.7889 216.8442,82.4149 L216.6272,82.0219 L210.7722,85.7369 L207.9192,81.2979 Z" id="Fill-102" fill="#04183B"></path>
        <path d="M228.0761,104.193 L233.1851,100.342 L226.7901,100.697 L228.0761,104.193 Z M224.9731,106.47 L222.9311,100.855 L220.0191,101.037 L218.1591,95.996 L236.3611,96.212 L238.3421,101.581 L224.5171,113.407 L222.6211,108.214 L224.9731,106.47 Z" id="Fill-104" fill="#04183B"></path>
        <path d="M233.1225,124.5568 L236.6495,124.1058 L237.6515,132.1898 L230.4515,133.0698 C229.2145,131.6638 228.2925,130.3948 227.7975,129.2498 C227.2395,128.1078 226.8845,126.7168 226.6755,125.1138 C226.4225,123.1158 226.5575,121.4338 227.1095,120.0778 C227.6165,118.7318 228.5195,117.6198 229.7665,116.7378 C231.0605,115.8888 232.5655,115.3468 234.3135,115.1328 C236.1365,114.8928 237.7995,115.0838 239.2675,115.6698 C240.7255,116.2658 241.9105,117.2328 242.8045,118.6288 C243.5025,119.6988 243.9645,121.2028 244.1905,123.1348 C244.4435,124.9968 244.4435,126.4168 244.2125,127.3668 C244.0155,128.3448 243.5895,129.1728 242.9225,129.8768 C242.3015,130.5688 241.4645,131.1568 240.4095,131.5858 L238.8845,126.6938 C239.4865,126.3858 239.9395,125.9838 240.2125,125.4368 C240.4705,124.9068 240.5555,124.2358 240.4705,123.4978 C240.3025,122.3268 239.8255,121.4738 238.9615,120.9018 C238.0465,120.3138 236.7425,120.1328 235.0255,120.3458 C233.1895,120.5708 231.9385,121.0888 231.2165,121.8608 C230.5475,122.6578 230.2935,123.6798 230.4195,124.9068 C230.4985,125.4828 230.6685,126.0148 230.8855,126.5298 C231.1295,127.0448 231.4675,127.5968 231.9745,128.2518 L233.5805,128.0468 L233.1225,124.5568 Z" id="Fill-106" fill="#04183B"></path>
        <path d="M243.9072,150.0773 L243.3272,155.2853 L233.2422,154.1393 C232.2342,154.0413 231.3152,153.7653 230.4632,153.3583 C229.6152,152.9383 228.8652,152.3703 228.2812,151.6243 C227.6932,150.8903 227.3172,150.1353 227.1092,149.3953 C226.8652,148.3023 226.8052,147.0793 226.9832,145.6503 C227.0902,144.8403 227.2402,143.9323 227.4492,142.9763 C227.6622,142.0173 228.0092,141.2303 228.4472,140.6253 C228.8382,140.0133 229.3902,139.4713 230.0602,138.9893 C230.8082,138.5353 231.4772,138.2333 232.1712,138.1093 C233.2642,137.9103 234.2762,137.8473 235.0812,137.9573 L245.1992,139.1173 L244.5892,144.2983 L234.2762,143.1323 C233.3252,143.0373 232.5752,143.1833 231.9902,143.6463 C231.4062,144.1103 231.0742,144.7773 230.9842,145.6823 C230.8852,146.5903 231.0632,147.3273 231.5122,147.8803 C231.9582,148.4543 232.6602,148.7873 233.5922,148.9223 L243.9072,150.0773 Z" id="Fill-108" fill="#04183B"></path>
        <path d="M228.2378,169.4181 L234.6588,169.6521 L229.4768,165.8931 L228.2378,169.4181 Z M224.4148,169.2361 L226.3658,163.6061 L223.9808,161.9101 L225.7548,156.8161 L239.7668,168.4491 L237.8528,173.8761 L219.6728,174.3241 L221.4578,169.1161 L224.4148,169.2361 Z" id="Fill-110" fill="#04183B"></path>
        <polygon id="Fill-112" fill="#04183B" points="233.8325 184.9054 230.8755 189.9354 224.1505 189.9574 227.3745 195.8364 224.4155 200.8254 219.2425 190.1014 213.0835 186.4834 215.7845 181.9324 221.9255 185.5624"></polygon>
        <path d="M6.3739,137.6475 C6.3739,210.2135 65.5329,269.2595 138.2319,269.2595 C210.9399,269.2595 270.1099,210.2135 270.1099,137.6475 C270.1099,65.1025 210.9399,6.0915 138.2319,6.0915 C65.5329,6.0915 6.3739,65.1025 6.3739,137.6475 Z M0.4399,137.6475 C0.4399,61.8395 62.2439,0.1595 138.2319,0.1595 C214.2199,0.1595 276.0419,61.8395 276.0419,137.6475 C276.0419,213.4995 214.2199,275.2015 138.2319,275.2015 C62.2439,275.2015 0.4399,213.4995 0.4399,137.6475 Z" id="Fill-114" fill="#04183B"></path>
        <path d="M26.5229,137.6491 C26.5229,199.1491 76.6489,249.1661 138.2519,249.1661 C199.8529,249.1661 249.9649,199.1491 249.9649,137.6491 C249.9649,76.1811 199.8529,26.1911 138.2519,26.1911 C76.6489,26.1911 26.5229,76.1811 26.5229,137.6491 Z M24.1639,137.6491 C24.1639,74.8811 75.3389,23.8181 138.2519,23.8181 C201.1569,23.8181 252.3399,74.8811 252.3399,137.6491 C252.3399,200.4541 201.1569,251.5391 138.2519,251.5391 C75.3389,251.5391 24.1639,200.4541 24.1639,137.6491 Z" id="Fill-116" fill="#04183B"></path>
        <path d="M55.4109,137.2653 C55.4109,182.8443 92.5759,219.9253 138.2519,219.9253 C183.9119,219.9253 221.0729,182.8443 221.0729,137.2653 C221.0729,91.7023 183.9119,54.6393 138.2519,54.6393 C92.5759,54.6393 55.4109,91.7023 55.4109,137.2653 Z M53.0319,137.2653 C53.0319,90.3883 91.2629,52.2563 138.2519,52.2563 C185.2219,52.2563 223.4369,90.3883 223.4369,137.2653 C223.4369,184.1493 185.2219,222.3003 138.2519,222.3003 C91.2629,222.3003 53.0319,184.1493 53.0319,137.2653 Z" id="Fill-118" fill="#04183B"></path>
        <path d="M192.9682,173.4953 L192.9582,173.4953 L192.9682,173.4953 Z" id="Fill-120" fill="#04183B"></path>
        <polygon id="Fill-122" fill="#04183B" points="335.85 150.208 345.767 150.208 345.767 105.122 335.85 105.122"></polygon>
        <polygon id="Fill-124" fill="#04183B" points="355.7485 105.1222 364.8925 105.1222 386.0235 132.8802 386.0235 105.1222 395.8075 105.1222 395.8075 150.2082 387.3735 150.2082 365.5405 121.5452 365.5405 150.2082 355.7485 150.2082"></polygon>
        <path d="M422.9189,141.256 C431.0259,141.256 436.5049,135.779 436.5049,127.79 L436.5049,127.664 C436.5049,119.679 431.0259,114.08 422.9189,114.08 L415.2529,114.08 L415.2529,141.256 L422.9189,141.256 Z M405.3259,105.116 L422.9189,105.116 C437.0819,105.116 446.8769,114.846 446.8769,127.533 C446.8769,140.359 437.0819,150.208 422.9189,150.208 L405.3259,150.208 L405.3259,105.116 Z" id="Fill-125" fill="#04183B"></path>
        <path d="M453.6826,105.122 L463.6096,105.122 L463.6096,130.631 C463.6096,137.971 467.2846,141.777 473.3406,141.777 C479.3866,141.777 483.0576,138.1 483.0576,130.948 L483.0576,105.122 L492.9886,105.122 L492.9886,130.567 C492.9886,144.215 485.3126,150.916 473.2096,150.916 C461.0976,150.916 453.6826,144.152 453.6826,130.883 L453.6826,105.122 Z" id="Fill-126" fill="#04183B"></path>
        <path d="M504.564,136.6147 C508.622,139.9657 512.871,142.0897 518.031,142.0897 C522.088,142.0897 524.525,140.4807 524.525,137.8407 C524.525,135.2037 522.989,133.9127 515.443,131.9827 C506.367,129.6627 500.508,127.1467 500.508,118.1957 C500.508,109.8817 507.069,104.4737 516.282,104.4737 C522.853,104.4737 528.461,106.5387 533.034,110.2097 L527.879,117.6817 C523.889,114.9087 519.953,113.2327 516.161,113.2327 C512.36,113.2327 510.355,114.9757 510.355,117.1617 C510.355,120.2577 512.293,121.2247 520.087,123.2217 C529.232,125.6007 534.387,128.8887 534.387,136.7447 C534.387,145.8287 527.561,150.8487 517.838,150.8487 C511.007,150.8487 504.112,148.4697 498.707,143.6427 L504.564,136.6147 Z" id="Fill-127" fill="#04183B"></path>
        <polygon id="Fill-128" fill="#04183B" points="551.25 114.2658 537.527 114.2658 537.527 105.1218 574.887 105.1218 574.887 114.2658 561.174 114.2658 561.174 150.2138 551.25 150.2138"></polygon>
        <path d="M601.1631,127.0216 C606.0001,127.0216 608.7661,124.4406 608.7661,120.6426 L608.7661,120.5126 C608.7661,116.2616 605.8031,114.0806 600.9761,114.0806 L591.1111,114.0806 L591.1111,127.0216 L601.1631,127.0216 Z M581.1971,105.1166 L601.8131,105.1166 C607.5301,105.1166 611.9881,106.7316 614.9451,109.6926 C617.4671,112.2066 618.8101,115.7436 618.8101,120.0006 C618.8101,127.4116 614.8851,131.9826 609.1501,134.1046 L620.1641,150.2086 L608.5681,150.2086 L598.9081,135.7796 L591.1111,135.7796 L591.1111,150.2086 L581.1971,150.2086 L581.1971,105.1166 Z" id="Fill-129" fill="#04183B"></path>
        <polygon id="Fill-130" fill="#04183B" points="626.908 150.208 636.839 150.208 636.839 105.122 626.908 105.122"></polygon>
        <path d="M672.7085,131.3332 L666.7125,116.7112 L660.7205,131.3332 L672.7085,131.3332 Z M662.2705,104.7922 L671.4155,104.7922 L690.7395,150.2082 L680.3725,150.2082 L676.2435,140.0922 L657.1795,140.0922 L653.0635,150.2082 L642.9525,150.2082 L662.2705,104.7922 Z" id="Fill-131" fill="#04183B"></path>
        <polygon id="Fill-132" fill="#04183B" points="348.0825 196.8244 330.7585 169.5124 342.3555 169.5124 353.1085 187.6144 364.0555 169.5124 375.3365 169.5124 358.0075 196.6334 358.0075 214.6044 348.0825 214.6044"></polygon>
        <path d="M419.7631,168.7417 C428.2611,168.7417 433.3481,171.5747 437.5341,175.6937 L431.2241,182.9777 C427.7501,179.8237 424.1991,177.8867 419.6891,177.8867 C412.0971,177.8867 406.6241,184.1977 406.6241,191.9237 C406.6241,199.7877 411.9721,206.2307 419.6891,206.2307 C424.8551,206.2307 428.0001,204.1667 431.5411,200.9437 L437.8511,207.3177 C433.2241,212.2867 428.0731,215.3797 419.3781,215.3797 C406.1071,215.3797 396.2461,205.1317 396.2461,192.1847 C396.2461,179.2407 405.9101,168.7417 419.7631,168.7417 Z" id="Fill-133" fill="#04183B"></path>
        <path d="M478.752,192.0607 C478.752,184.3277 473.076,177.8867 465.099,177.8867 C457.105,177.8867 451.57,184.1977 451.57,191.9237 L451.57,192.0607 C451.57,199.7877 457.235,206.2307 465.217,206.2307 C473.21,206.2307 478.752,199.9137 478.752,192.1847 L478.752,192.0607 Z M465.217,168.7417 C479.136,168.7417 489.114,179.1037 489.114,191.9237 C489.114,204.8747 479.006,215.3797 465.099,215.3797 C451.184,215.3797 441.195,205.0047 441.195,192.1847 C441.195,179.2407 451.313,168.7417 465.217,168.7417 Z" id="Fill-134" fill="#04183B"></path>
        <polygon id="Fill-135" fill="#04183B" points="496.6396 169.5128 507.3396 169.5128 519.1816 188.5818 531.0336 169.5128 541.7296 169.5128 541.7296 214.6048 531.8816 214.6048 531.8816 185.1658 519.1816 204.4228 518.9316 204.4228 506.3616 185.3598 506.3616 214.6048 496.6396 214.6048"></polygon>
        <polygon id="Fill-136" fill="#04183B" points="551.25 169.5128 585.265 169.5128 585.265 178.3378 561.102 178.3378 561.102 187.4838 582.359 187.4838 582.359 196.3098 561.102 196.3098 561.102 205.7768 585.586 205.7768 585.586 214.6048 551.25 214.6048"></polygon>
        <path d="M613.0723,191.4152 C617.9053,191.4152 620.6753,188.8432 620.6753,185.0352 L620.6753,184.9052 C620.6753,180.6562 617.7183,178.4692 612.8793,178.4692 L603.0273,178.4692 L603.0273,191.4152 L613.0723,191.4152 Z M593.1023,169.5132 L613.7173,169.5132 C619.4553,169.5132 623.8913,171.1262 626.8613,174.0852 C629.3703,176.6012 630.7193,180.1422 630.7193,184.3942 C630.7193,191.8002 626.7983,196.3732 621.0593,198.4972 L632.0723,214.6042 L620.4873,214.6042 L610.8233,200.1742 L603.0273,200.1742 L603.0273,214.6042 L593.1023,214.6042 L593.1023,169.5132 Z" id="Fill-137" fill="#04183B"></path>
        <path d="M659.8924,168.7417 C668.3964,168.7417 673.4844,171.5747 677.6694,175.6937 L671.3474,182.9777 C667.8784,179.8237 664.3334,177.8867 659.8274,177.8867 C652.2224,177.8867 646.7474,184.1977 646.7474,191.9237 C646.7474,199.7877 652.0954,206.2307 659.8274,206.2307 C664.9804,206.2307 668.1364,204.1667 671.6774,200.9437 L677.9874,207.3177 C673.3474,212.2867 668.1964,215.3797 659.5014,215.3797 C646.2324,215.3797 636.3804,205.1317 636.3804,192.1847 C636.3804,179.2407 646.0444,168.7417 659.8924,168.7417 Z" id="Fill-138" fill="#04183B"></path>
        <polygon id="Fill-139" fill="#04183B" points="685.058 214.609 694.98 214.609 694.98 169.517 685.058 169.517"></polygon>
        <path d="M740.5073,192.0607 C740.5073,184.3277 734.8413,177.8867 726.8593,177.8867 C718.8763,177.8867 713.3353,184.1977 713.3353,191.9237 L713.3353,192.0607 C713.3353,199.7877 718.9953,206.2307 726.9873,206.2307 C734.9723,206.2307 740.5073,199.9137 740.5073,192.1847 L740.5073,192.0607 Z M726.9873,168.7417 C740.8983,168.7417 750.8903,179.1037 750.8903,191.9237 C750.8903,204.8747 740.7773,215.3797 726.8593,215.3797 C712.9503,215.3797 702.9563,205.0047 702.9563,192.1847 C702.9563,179.2407 713.0753,168.7417 726.9873,168.7417 Z" id="Fill-140" fill="#04183B"></path>
        <path d="M360.7158,81.8644 L360.7158,81.3534 C362.0568,81.2884 363.1778,81.0064 364.0728,80.5094 C364.9768,80.0104 365.5768,79.4354 365.8878,78.7844 C366.0738,78.3804 366.2198,77.8734 366.3108,77.2694 C366.4068,76.6644 366.4678,76.0514 366.4978,75.4234 C366.5668,73.3714 366.5938,71.4144 366.5938,69.5484 L366.5938,63.7704 L366.5938,50.5754 C365.5688,52.8734 364.6178,54.9864 363.7658,56.9174 C362.9128,58.8414 362.0648,60.7264 361.2288,62.5514 C360.3878,64.3924 359.5398,66.2664 358.6838,68.1744 C357.8278,70.0854 356.8928,72.1964 355.8708,74.4964 C355.7108,74.8034 355.4918,75.2934 355.2118,75.9644 C354.9298,76.6324 354.6598,77.3174 354.3778,78.0114 C354.0928,78.7184 353.8268,79.3504 353.5808,79.9284 C353.3338,80.4974 353.1758,80.8804 353.1168,81.0674 L352.8328,81.0674 C351.8368,78.7624 350.8568,76.4864 349.8778,74.2124 C348.8958,71.9434 347.9408,69.7584 347.0018,67.6624 C346.0788,65.5614 345.1988,63.5944 344.3938,61.7604 C343.5828,59.9274 342.8548,58.3004 342.2038,56.8684 C341.5528,55.4364 341.0128,54.2384 340.5888,53.2804 C340.1798,52.3154 339.8878,51.6664 339.7378,51.3194 C339.7378,53.3684 339.7308,55.1834 339.7088,56.7474 C339.6908,58.3234 339.6788,59.8744 339.6608,61.4174 C339.6438,62.9494 339.6438,64.5774 339.6438,66.2894 L339.6438,72.2534 C339.6438,73.7174 339.6908,74.9794 339.7818,76.0584 C339.8678,77.1294 340.1048,78.0314 340.4798,78.7604 C340.8548,79.4894 341.4148,80.0674 342.1798,80.4854 C342.9378,80.9034 343.9888,81.2074 345.3248,81.3924 L345.3248,81.8644 L333.1568,81.8644 L333.1568,81.3924 C334.2418,81.1744 335.1378,80.8564 335.8108,80.4404 C336.4988,80.0234 337.0438,79.4354 337.4418,78.6924 C337.8478,77.9504 338.1528,77.0214 338.3378,75.9204 C338.5148,74.8114 338.6258,73.4664 338.6568,71.8844 C338.7198,70.5454 338.7718,68.9684 338.7958,67.1504 C338.8348,65.3334 338.8428,63.3804 338.8428,61.2994 L338.8428,59.0104 L338.8428,57.2394 L338.8428,55.4244 C338.8428,54.7974 338.8348,54.0374 338.7958,53.1354 C338.7718,52.2694 338.5778,51.5574 338.2428,51.0134 C337.8958,50.4704 337.4928,50.0424 337.0318,49.7314 C336.5658,49.4214 336.0648,49.1944 335.5408,49.0544 C334.9998,48.9144 334.5578,48.8194 334.1868,48.7564 L334.1868,48.2894 L344.1118,48.2894 L355.2578,73.6544 C356.6288,70.7044 357.9618,67.7594 359.2698,64.8424 C360.5718,61.9244 361.7458,59.2794 362.7928,56.9174 C363.8288,54.5484 364.6888,52.5834 365.3518,51.0134 C366.0248,49.4454 366.4068,48.5334 366.4978,48.2894 L376.4368,48.2894 L376.4368,48.7564 C375.1558,48.7844 374.1798,49.0484 373.5148,49.5434 C372.8458,50.0424 372.3858,50.6344 372.1418,51.3194 C371.9558,51.8454 371.8358,52.6744 371.7668,53.7864 C371.6998,54.9114 371.6508,56.0164 371.6288,57.1014 C371.6008,58.5924 371.5768,60.0404 371.5768,61.4354 L371.5768,65.6824 L371.5768,70.7164 C371.5768,72.3594 371.6008,74.1094 371.6288,75.9444 C371.6288,76.5334 371.6578,77.1294 371.7508,77.7374 C371.8218,78.3414 371.9558,78.8144 372.1418,79.1594 C372.1708,79.2154 372.2938,79.3664 372.4888,79.5954 C372.6978,79.8324 372.9778,80.0824 373.3528,80.3454 C373.7278,80.6134 374.1898,80.8404 374.7528,81.0434 C375.3178,81.2424 375.9628,81.3644 376.7038,81.3924 L376.7038,81.8644 L360.7158,81.8644 Z" id="Fill-141" fill="#04183B"></path>
        <path d="M383.9344,54.4893 C383.2484,54.4893 382.6564,54.2403 382.1634,53.7413 C381.6644,53.2483 381.4224,52.6603 381.4224,51.9703 C381.4224,51.2623 381.6524,50.6623 382.1404,50.1963 C382.6224,49.7313 383.2264,49.4983 383.9344,49.4983 C384.6484,49.4983 385.2484,49.7313 385.7314,50.1963 C386.2164,50.6623 386.4494,51.2623 386.4494,51.9703 C386.4494,52.6843 386.2164,53.2853 385.7314,53.7633 C385.2484,54.2523 384.6484,54.4893 383.9344,54.4893 Z M379.0404,81.8663 L379.0404,81.3943 C379.4134,81.3653 379.7884,81.3253 380.1624,81.2823 C380.5374,81.2313 380.8634,81.1523 381.1674,81.0433 C381.4574,80.9313 381.7014,80.7913 381.9064,80.6033 C382.1154,80.4143 382.2114,80.1813 382.2114,79.9053 L382.2114,63.9073 C382.2114,63.6623 382.1924,63.4413 382.1404,63.2563 C382.0954,63.0723 381.9634,62.8963 381.7484,62.7423 C381.4644,62.5533 381.1284,62.3703 380.7424,62.1823 C380.3494,61.9953 379.9454,61.8273 379.5054,61.6743 L379.5054,61.3933 L385.8104,59.3383 L386.0744,59.3383 L386.0744,80.1813 C386.1434,80.4973 386.2734,80.7183 386.4814,80.8563 C386.6744,80.9963 386.9244,81.1003 387.2054,81.1593 C387.4714,81.2223 387.7894,81.2643 388.1064,81.2823 C388.4334,81.2963 388.7574,81.3273 389.0634,81.3943 L389.0634,81.8663 L379.0404,81.8663 Z" id="Fill-142" fill="#04183B"></path>
        <path d="M404.4111,81.8644 L404.4111,81.3534 C405.2551,81.2884 405.9201,81.1834 406.4151,81.0434 C406.9101,80.9034 407.1611,80.5844 407.1611,80.0914 L407.1611,68.3374 C407.1611,66.5344 406.8211,65.0804 406.1351,63.9774 C405.4461,62.8734 404.3071,62.3244 402.6811,62.3244 C401.6551,62.3244 400.8031,62.5374 400.1081,62.9794 C399.4431,63.4094 398.6721,64.0494 397.8341,64.8894 L397.8341,80.1774 C397.8961,80.4934 398.0061,80.7214 398.1611,80.8564 C398.3071,80.9964 398.4951,81.1004 398.7141,81.1594 C398.9421,81.2224 399.1831,81.2644 399.4691,81.2804 C399.7451,81.2944 400.0411,81.3334 400.3491,81.3924 L400.3491,81.8644 L391.3551,81.8644 L391.3551,81.3924 C392.0691,81.3334 392.6831,81.1954 393.1941,80.9744 C393.7091,80.7594 393.9661,80.4004 393.9661,79.9034 L393.9661,63.8594 C393.9661,63.6094 393.9331,63.4254 393.8921,63.3034 C393.8451,63.1804 393.7091,63.0344 393.4961,62.8854 C393.2141,62.7314 392.8921,62.5494 392.5171,62.3444 C392.1421,62.1434 391.7671,61.9694 391.4031,61.8074 L391.4031,61.5274 L397.5071,59.3364 L397.7861,59.3364 L397.7861,64.3764 L397.8811,64.4234 C398.2241,63.8954 398.6501,63.3264 399.1551,62.7214 C399.6721,62.1154 400.2441,61.5594 400.9011,61.0604 C401.5531,60.5694 402.2651,60.1564 403.0361,59.8274 C403.8171,59.5054 404.6141,59.3364 405.4561,59.3364 C407.2541,59.3364 408.6351,60.0054 409.5871,61.3424 C410.5461,62.6814 411.0231,64.4064 411.0231,66.5184 L411.0231,80.2284 C411.0231,80.4494 411.1281,80.6374 411.3371,80.7914 C411.5341,80.9504 411.7721,81.0614 412.0601,81.1404 C412.3251,81.2184 412.6421,81.2804 412.9601,81.3274 C413.2941,81.3734 413.5861,81.4084 413.8781,81.4444 L413.8781,81.8644 L404.4111,81.8644 Z" id="Fill-143" fill="#04183B"></path>
        <path d="M420.0799,54.4893 C419.3919,54.4893 418.8039,54.2403 418.3049,53.7413 C417.8039,53.2483 417.5549,52.6603 417.5549,51.9703 C417.5549,51.2623 417.7939,50.6623 418.2729,50.1963 C418.7619,49.7313 419.3559,49.4983 420.0799,49.4983 C420.7939,49.4983 421.3859,49.7313 421.8769,50.1963 C422.3549,50.6623 422.5949,51.2623 422.5949,51.9703 C422.5949,52.6843 422.3549,53.2853 421.8769,53.7633 C421.3859,54.2523 420.7939,54.4893 420.0799,54.4893 Z M415.1739,81.8663 L415.1739,81.3943 C415.5549,81.3653 415.9299,81.3253 416.2939,81.2823 C416.6689,81.2313 417.0019,81.1523 417.3049,81.0433 C417.5969,80.9313 417.8449,80.7913 418.0539,80.6033 C418.2469,80.4143 418.3559,80.1813 418.3559,79.9053 L418.3559,63.9073 C418.3559,63.6623 418.3239,63.4413 418.2729,63.2563 C418.2309,63.0723 418.0959,62.8963 417.8819,62.7423 C417.5969,62.5533 417.2729,62.3703 416.8759,62.1823 C416.4909,61.9953 416.0749,61.8273 415.6479,61.6743 L415.6479,61.3933 L421.9389,59.3383 L422.2199,59.3383 L422.2199,80.1813 C422.2869,80.4973 422.4169,80.7183 422.6139,80.8563 C422.8179,80.9963 423.0589,81.1003 423.3389,81.1593 C423.6149,81.2223 423.9169,81.2643 424.2499,81.2823 C424.5729,81.2963 424.8979,81.3273 425.2089,81.3943 L425.2089,81.8663 L415.1739,81.8663 Z" id="Fill-144" fill="#04183B"></path>
        <path d="M440.7378,80.3688 C439.9248,80.9228 438.9978,81.3278 437.9618,81.5778 C436.9208,81.8268 435.8218,81.9548 434.6718,81.9548 C433.3008,81.9548 432.0148,81.8268 430.8018,81.5778 C429.5878,81.3278 428.4738,80.9748 427.4378,80.5048 L427.4378,74.3578 L427.8128,74.3578 C428.0638,75.0958 428.3688,75.8848 428.7498,76.7098 C429.1248,77.5338 429.5628,78.2958 430.0888,78.9918 C430.6138,79.6968 431.2488,80.2698 431.9948,80.7178 C432.7378,81.1718 433.6238,81.3948 434.6448,81.3948 C436.1298,81.3948 437.3118,80.9708 438.1918,80.1108 C439.0768,79.2608 439.5188,77.9448 439.5188,76.1688 C439.5188,75.2078 439.2168,74.4088 438.6128,73.7698 C438.0138,73.1328 437.1748,72.7048 436.1298,72.4918 C435.2908,72.3338 434.4938,72.1618 433.7168,71.9748 C432.9468,71.7938 432.2488,71.5868 431.6298,71.3678 C430.4478,70.9648 429.4988,70.2628 428.7598,69.2688 C428.0418,68.2788 427.6768,67.0768 427.6768,65.6788 C427.6768,64.7198 427.8858,63.8478 428.2858,63.0728 C428.6868,62.2888 429.2358,61.6258 429.9218,61.0618 C430.5938,60.5058 431.3958,60.0718 432.2968,59.7758 C433.1958,59.4878 434.1548,59.3378 435.1868,59.3378 C436.4918,59.3378 437.6388,59.4578 438.6328,59.6808 C439.6288,59.9218 440.5708,60.2098 441.4778,60.5498 L442.0398,66.3348 L441.6648,66.4318 C441.2338,65.4928 440.7888,64.6348 440.3628,63.8378 C439.9248,63.0508 439.4418,62.3628 438.9148,61.7838 C438.3848,61.2158 437.7908,60.7698 437.1238,60.4628 C436.4568,60.1468 435.6858,59.9888 434.8118,59.9888 C434.2908,59.9888 433.7608,60.0838 433.2558,60.2708 C432.7378,60.4628 432.2848,60.7308 431.9008,61.0818 C431.5098,61.4488 431.1888,61.8948 430.9468,62.4388 C430.6868,62.9838 430.5628,63.6088 430.5628,64.3288 C430.5628,65.4788 430.8968,66.2978 431.5468,66.8008 C432.2018,67.2958 433.0298,67.6768 434.0248,67.9148 C434.7008,68.0768 435.4508,68.2388 436.2598,68.4098 C437.0668,68.5798 437.7648,68.7438 438.3568,68.8978 C439.7598,69.2448 440.9458,69.9548 441.9258,71.0478 C442.9098,72.1328 443.3928,73.4718 443.3928,75.0558 C443.3928,76.2658 443.1538,77.3148 442.6748,78.2008 C442.1858,79.0888 441.5508,79.8108 440.7378,80.3688 Z" id="Fill-145" fill="#04183B"></path>
        <path d="M458.8691,62.652 L451.7871,62.652 L451.7871,74.91 C451.7871,76.501 452.1321,77.649 452.8181,78.366 C453.4951,79.081 454.3811,79.436 455.4701,79.436 C456.3691,79.436 457.1151,79.29 457.7031,78.99 C458.2971,78.698 458.8111,78.242 459.2451,77.617 L459.5251,77.759 C459.3441,78.221 459.0881,78.716 458.7611,79.227 C458.4321,79.741 457.9951,80.201 457.4521,80.627 C456.9121,81.044 456.2661,81.377 455.5371,81.598 C454.7971,81.839 453.9551,81.957 452.9551,81.957 C452.2981,81.957 451.6681,81.85 451.0791,81.649 C450.4741,81.448 449.9441,81.156 449.4801,80.767 C449.0171,80.379 448.6421,79.944 448.3501,79.464 C448.0581,78.976 447.9121,78.493 447.9121,77.99 C447.9121,75.069 447.9341,72.293 447.9561,69.667 C447.9971,67.039 448.0071,64.7 448.0071,62.652 L444.6061,62.652 L444.6061,62.139 L451.3191,55.746 L451.6941,55.746 L451.6941,59.804 L460.3161,59.804 L458.8691,62.652 Z" id="Fill-146" fill="#04183B"></path>
        <path d="M469.9202,60.1349 C469.0462,60.1349 468.2682,60.3859 467.5662,60.8989 C466.8682,61.4169 466.2592,62.0129 465.7432,62.6919 C465.2322,63.3799 464.8382,64.0689 464.5612,64.7709 C464.2762,65.4729 464.1082,66.0059 464.0412,66.3829 L465.9632,66.3829 C466.5142,66.3829 467.0652,66.3749 467.6072,66.3569 C468.1602,66.3369 468.7222,66.3249 469.3162,66.3099 C469.9042,66.2939 470.5602,66.2859 471.2732,66.2859 C471.7322,66.2859 472.1802,66.2739 472.5812,66.2439 C472.9872,66.2109 473.3412,66.1319 473.6482,66.0059 C473.8612,65.7569 474.0332,65.5289 474.1382,65.3039 C474.2522,65.0889 474.3082,64.7629 474.3082,64.3289 C474.3082,63.1809 473.9082,62.1929 473.1172,61.3659 C472.3262,60.5479 471.2532,60.1349 469.9202,60.1349 Z M476.6842,79.4359 C475.9292,80.1499 475.0392,80.7439 474.0032,81.2069 C472.9502,81.6729 471.8052,81.9019 470.5232,81.9019 C468.9452,81.9019 467.4992,81.6139 466.1972,81.0179 C464.8892,80.4339 463.7742,79.5959 462.8472,78.5249 C461.9422,77.4549 461.2242,76.1969 460.7392,74.7489 C460.2402,73.3029 459.9892,71.7739 459.9892,70.1569 C459.9892,68.8539 460.2182,67.5529 460.6912,66.2659 C461.1512,64.9719 461.8182,63.8159 462.6722,62.7899 C463.5242,61.7609 464.5782,60.9299 465.7952,60.2969 C467.0192,59.6599 468.3882,59.3379 469.8722,59.3379 C471.0862,59.3379 472.2312,59.4919 473.3042,59.8039 C474.3782,60.1169 475.3052,60.5929 476.1002,61.2279 C476.8882,61.8669 477.5442,62.6719 478.0332,63.6329 C478.5322,64.5939 478.8242,65.7299 478.9192,67.0349 L463.9522,67.0349 C463.9522,67.2839 463.9302,67.5679 463.9052,67.8899 C463.8732,68.2229 463.8572,68.5559 463.8572,68.8979 C463.8572,70.2039 464.0412,71.4619 464.4202,72.6519 C464.7952,73.8469 465.3312,74.9029 466.0522,75.8219 C466.7692,76.7369 467.6712,77.4629 468.7582,77.9919 C469.8462,78.5129 471.1072,78.7849 472.5332,78.7849 C474.0862,78.7849 475.4392,78.3869 476.6172,77.5919 C477.7832,76.8009 478.5542,75.8299 478.9192,74.6859 L479.2942,74.7729 C479.1742,75.4589 478.8882,76.2259 478.4602,77.0839 C478.0172,77.9349 477.4182,78.7179 476.6842,79.4359 Z" id="Fill-147" fill="#04183B"></path>
        <path d="M494.4985,64.1914 C493.9985,64.1914 493.6035,64.1044 493.3115,63.9324 C493.0095,63.7624 492.7595,63.5714 492.5405,63.3484 C492.3175,63.1334 492.0925,62.9344 491.8325,62.7684 C491.5935,62.5984 491.2485,62.5084 490.8125,62.5084 C490.4415,62.5084 490.0725,62.6444 489.7175,62.9044 C489.3645,63.1734 489.0215,63.5024 488.7135,63.9084 C488.3955,64.3094 488.1255,64.7724 487.8745,65.2804 C487.6245,65.8004 487.4055,66.2854 487.2305,66.7514 L487.2305,80.1814 C487.3125,80.4614 487.5205,80.6794 487.8285,80.8404 C488.1415,80.9964 488.4885,81.1004 488.8845,81.1594 C489.2655,81.2224 489.6655,81.2584 490.0925,81.2804 C490.5145,81.2944 490.8735,81.3294 491.1875,81.3964 L491.1875,81.8624 L480.7405,81.8624 L480.7405,81.3964 C481.4545,81.3294 482.0735,81.1994 482.5785,80.9744 C483.0955,80.7574 483.3555,80.4024 483.3555,79.9034 L483.3555,64.1434 C483.3555,63.8954 483.3335,63.7054 483.2875,63.5854 C483.2415,63.4574 483.1055,63.3194 482.8925,63.1654 C482.6105,63.0074 482.2825,62.8124 481.9025,62.5814 C481.5425,62.3484 481.1625,62.1534 480.7875,61.9974 L480.7875,61.7204 L486.9005,59.3384 L487.1825,59.3384 L487.0875,65.8204 L487.1825,65.8204 C487.3325,65.4454 487.5825,64.9034 487.9225,64.1914 C488.2595,63.4764 488.7075,62.7554 489.2285,62.0164 C489.7605,61.2914 490.3905,60.6634 491.1455,60.1354 C491.8855,59.6044 492.7385,59.3384 493.7065,59.3384 C494.4775,59.3384 495.1445,59.5744 495.6915,60.0404 C496.2335,60.5064 496.5035,61.0944 496.5035,61.8094 C496.5035,62.4944 496.3005,63.0624 495.8945,63.5124 C495.4885,63.9664 495.0205,64.1914 494.4985,64.1914 Z" id="Fill-148" fill="#04183B"></path>
        <path d="M501.7783,54.4893 C501.0913,54.4893 500.4923,54.2403 499.9973,53.7413 C499.4983,53.2483 499.2483,52.6603 499.2483,51.9703 C499.2483,51.2623 499.4883,50.6623 499.9713,50.1963 C500.4613,49.7313 501.0493,49.4983 501.7783,49.4983 C502.4873,49.4983 503.0813,49.7313 503.5703,50.1963 C504.0493,50.6623 504.2883,51.2623 504.2883,51.9703 C504.2883,52.6843 504.0493,53.2853 503.5703,53.7633 C503.0813,54.2523 502.4873,54.4893 501.7783,54.4893 Z M496.8733,81.8663 L496.8733,81.3943 C497.2473,81.3653 497.6243,81.3253 497.9873,81.2823 C498.3623,81.2313 498.7013,81.1523 498.9933,81.0433 C499.2893,80.9313 499.5403,80.7913 499.7493,80.6033 C499.9463,80.4143 500.0503,80.1813 500.0503,79.9053 L500.0503,63.9073 C500.0503,63.6623 500.0193,63.4413 499.9713,63.2563 C499.9243,63.0723 499.7903,62.8963 499.5753,62.7423 C499.2893,62.5533 498.9673,62.3703 498.5713,62.1823 C498.1863,61.9953 497.7743,61.8273 497.3413,61.6743 L497.3413,61.3933 L503.6323,59.3383 L503.9133,59.3383 L503.9133,80.1813 C503.9823,80.4973 504.1123,80.7183 504.3093,80.8563 C504.5183,80.9963 504.7523,81.1003 505.0393,81.1593 C505.3093,81.2223 505.6173,81.2643 505.9453,81.2823 C506.2683,81.2963 506.5903,81.3273 506.8973,81.3943 L506.8973,81.8663 L496.8733,81.8663 Z" id="Fill-149" fill="#04183B"></path>
        <path d="M524.9928,63.6309 C524.4568,62.6009 523.7648,61.7569 522.8948,61.0819 C522.0248,60.4189 520.9468,60.0839 519.6828,60.0839 C518.6418,60.0839 517.7388,60.3959 516.9328,61.0189 C516.1108,61.6419 515.4218,62.4589 514.8498,63.4689 C514.2718,64.4749 513.8398,65.6089 513.5478,66.8719 C513.2458,68.1289 513.0998,69.4109 513.0998,70.7149 C513.0998,72.1469 513.2248,73.4939 513.4748,74.7729 C513.7258,76.0509 514.1318,77.1749 514.6818,78.1499 C515.2438,79.1319 515.9638,79.9109 516.8338,80.4859 C517.6978,81.0649 518.7438,81.3489 519.9528,81.3489 C521.1718,81.3489 522.1868,80.9829 523.0148,80.2489 C523.8268,79.5209 524.5098,78.6009 525.0148,77.4989 C525.5298,76.3959 525.9098,75.2079 526.1338,73.9319 C526.3678,72.6599 526.4878,71.4819 526.4878,70.3929 C526.4878,69.3319 526.3678,68.1959 526.1338,66.9879 C525.9098,65.7729 525.5238,64.6559 524.9928,63.6309 Z M527.5618,78.6469 C526.5658,79.7039 525.4088,80.5209 524.0878,81.1129 C522.7598,81.7099 521.3688,81.9999 519.9118,81.9999 C518.6928,81.9999 517.4318,81.7849 516.1298,81.3489 C514.8238,80.9109 513.6208,80.2229 512.5158,79.2779 C511.4128,78.3249 510.5178,77.1119 509.8098,75.6359 C509.1168,74.1609 508.7678,72.4289 508.7678,70.4369 C508.7678,69.0039 509.0378,67.6269 509.5908,66.2859 C510.1208,64.9479 510.8928,63.7709 511.8648,62.7429 C512.8398,61.7209 514.0278,60.8909 515.4118,60.2769 C516.7868,59.6519 518.3268,59.3379 520.0038,59.3379 C521.2488,59.3379 522.5098,59.5729 523.7858,60.0399 C525.0508,60.4999 526.2228,61.1979 527.2538,62.1119 C528.2898,63.0269 529.1498,64.1789 529.8258,65.5639 C530.4878,66.9489 530.8208,68.5709 530.8208,70.4369 C530.8208,72.0189 530.5248,73.5179 529.9348,74.9319 C529.3468,76.3509 528.5558,77.5859 527.5618,78.6469 Z" id="Fill-150" fill="#04183B"></path>
        <path d="M559.123,64.4669 C558.431,63.1889 557.57,62.1669 556.509,61.3899 C555.457,60.6139 554.473,60.2259 553.571,60.2259 C552.364,60.2259 551.326,60.5059 550.469,61.0599 C549.614,61.6259 548.916,62.3699 548.348,63.3029 C547.802,64.2369 547.385,65.3069 547.119,66.5189 C546.845,67.7359 546.719,68.9769 546.719,70.2489 C546.719,71.5279 546.874,72.7639 547.187,73.9639 C547.494,75.1589 547.969,76.2129 548.583,77.1299 C549.202,78.0429 549.979,78.7889 550.894,79.3449 C551.811,79.9039 552.873,80.1809 554.086,80.1809 C555.369,80.1809 556.452,79.7519 557.373,78.8759 C558.294,78.0039 558.878,76.9009 559.123,75.5679 L559.123,64.4669 Z M559.446,81.9999 L559.164,81.9999 L559.164,77.3409 C558.217,78.8929 557.154,80.0429 555.925,80.7929 C554.696,81.5329 553.165,81.9069 551.333,81.9069 C550.192,81.9069 549.072,81.6809 548.001,81.2309 C546.932,80.7849 545.978,80.0829 545.137,79.1319 C544.292,78.1849 543.625,77.0209 543.13,75.6359 C542.631,74.2539 542.387,72.6599 542.387,70.8549 C542.387,69.2409 542.667,67.7359 543.24,66.3349 C543.822,64.9369 544.631,63.7169 545.673,62.6719 C546.719,61.6309 547.969,60.8179 549.417,60.2259 C550.885,59.6359 552.498,59.3419 554.273,59.3419 C555.207,59.3419 556.087,59.4169 556.905,59.5729 C557.728,59.7329 558.481,59.9199 559.164,60.1349 C559.139,59.6679 559.113,59.0299 559.102,58.2209 C559.081,57.4149 559.071,56.5839 559.071,55.7479 L559.071,53.4179 L559.071,51.7829 L555.248,50.3409 L555.248,50.0629 L562.67,48.0109 L563.034,48.0109 L563.034,78.2679 C563.289,78.4219 563.757,78.6469 564.435,78.9209 C565.122,79.2029 565.757,79.4659 566.351,79.7159 L566.351,80.0429 L559.446,81.9999 Z" id="Fill-151" fill="#04183B"></path>
        <path d="M577.7766,60.1349 C576.9006,60.1349 576.1306,60.3859 575.4226,60.8989 C574.7246,61.4169 574.1206,62.0129 573.6006,62.6919 C573.0896,63.3799 572.6926,64.0689 572.4166,64.7709 C572.1366,65.4729 571.9646,66.0059 571.8956,66.3829 L573.8136,66.3829 C574.3696,66.3829 574.9216,66.3749 575.4646,66.3569 C576.0146,66.3369 576.5786,66.3249 577.1706,66.3099 C577.7606,66.2939 578.4216,66.2859 579.1296,66.2859 C579.5866,66.2859 580.0356,66.2739 580.4416,66.2439 C580.8376,66.2109 581.1976,66.1319 581.5046,66.0059 C581.7176,65.7569 581.8896,65.5289 581.9946,65.3039 C582.1026,65.0889 582.1656,64.7629 582.1656,64.3289 C582.1656,63.1809 581.7596,62.1929 580.9746,61.3659 C580.1816,60.5479 579.1086,60.1349 577.7766,60.1349 Z M584.5406,79.4359 C583.7856,80.1499 582.8956,80.7439 581.8576,81.2069 C580.8126,81.6729 579.6606,81.9019 578.3796,81.9019 C576.8016,81.9019 575.3606,81.6139 574.0516,81.0179 C572.7456,80.4339 571.6316,79.5959 570.7096,78.5249 C569.7986,77.4549 569.0786,76.1969 568.5956,74.7489 C568.0946,73.3029 567.8496,71.7739 567.8496,70.1569 C567.8496,68.8539 568.0756,67.5529 568.5476,66.2659 C569.0056,64.9719 569.6726,63.8159 570.5266,62.7899 C571.3806,61.7609 572.4286,60.9299 573.6456,60.2969 C574.8746,59.6599 576.2456,59.3379 577.7356,59.3379 C578.9426,59.3379 580.0886,59.4919 581.1616,59.8039 C582.2286,60.1169 583.1606,60.5929 583.9566,61.2279 C584.7476,61.8669 585.3946,62.6719 585.8876,63.6329 C586.3896,64.5939 586.6816,65.7299 586.7736,67.0349 L571.8086,67.0349 C571.8086,67.2839 571.7866,67.5679 571.7616,67.8899 C571.7306,68.2229 571.7146,68.5559 571.7146,68.8979 C571.7146,70.2039 571.8956,71.4619 572.2766,72.6519 C572.6516,73.8469 573.1876,74.9029 573.9066,75.8219 C574.6256,76.7369 575.5256,77.4629 576.6146,77.9919 C577.7036,78.5129 578.9636,78.7849 580.3906,78.7849 C581.9366,78.7849 583.2956,78.3869 584.4616,77.5919 C585.6396,76.8009 586.4096,75.8299 586.7736,74.6859 L587.1486,74.7729 C587.0246,75.4589 586.7476,76.2259 586.3166,77.0839 C585.8736,77.9349 585.2806,78.7179 584.5406,79.4359 Z" id="Fill-152" fill="#04183B"></path>
    </g>
</svg>